<svg xmlns="http://www.w3.org/2000/svg" xmlns:xlink="http://www.w3.org/1999/xlink" xmlns:lucid="lucid" width="2174.54" height="2101"><g transform="translate(-699.5 800.5)" lucid:page-tab-id=".Q4MUjXso07N"><path d="M500-1000h2500v2500H500z" fill="#fff"/><path d="M720-12a8 8 0 0 1 8-8h537.54a8 8 0 0 1 8 8v564a8 8 0 0 1-8 8H728a8 8 0 0 1-8-8z" stroke="#ced4db" fill="#f2f3f5"/><use xlink:href="#a" transform="matrix(1,0,0,1,728,-12) translate(199.50092592592597 25.06666666666665)"/><path d="M1540-12a8 8 0 0 1 8-8h537.54a8 8 0 0 1 8 8v571.7a8 8 0 0 1-8 8H1548a8 8 0 0 1-8-8z" stroke="#dedeff" fill="#f2f2ff"/><use xlink:href="#b" transform="matrix(1,0,0,1,1548,-12) translate(140.40277777777786 25.066666666666656)"/><use xlink:href="#c" transform="matrix(1,0,0,1,1548,-12) translate(246.587962962963 25.066666666666656)"/><path d="M1555.13 808a8 8 0 0 1 8-8h537.54a8 8 0 0 1 8 8v464a8 8 0 0 1-8 8h-537.54a8 8 0 0 1-8-8z" stroke="#cfe4ff" fill="#edf5ff"/><use xlink:href="#d" transform="matrix(1,0,0,1,1563.127717413724,808) translate(173.4333333333334 25.066666666666656)"/><use xlink:href="#e" transform="matrix(1,0,0,1,1563.127717413724,808) translate(260.2092592592593 25.066666666666656)"/><path d="M1540-772a8 8 0 0 1 8-8h537.54a8 8 0 0 1 8 8v571.7a8 8 0 0 1-8 8H1548a8 8 0 0 1-8-8z" stroke="#008573" fill="#e3fae3"/><use xlink:href="#f" transform="matrix(1,0,0,1,1548,-772) translate(77.99722222222232 25.066666666666656)"/><use xlink:href="#g" transform="matrix(1,0,0,1,1548,-772) translate(249.8953703703704 25.066666666666656)"/><use xlink:href="#h" transform="matrix(1,0,0,1,1548,-772) translate(366.17685185185184 25.066666666666656)"/><path d="M2300 88a8 8 0 0 1 8-8h537.54a8 8 0 0 1 8 8v360.14a8 8 0 0 1-8 8H2308a8 8 0 0 1-8-8z" stroke="#00c2a8" fill="#d7faf5"/><use xlink:href="#i" transform="matrix(1,0,0,1,2308,88) translate(62.46111111111122 25.066666666666656)"/><use xlink:href="#j" transform="matrix(1,0,0,1,2308,88) translate(241.2351851851852 25.066666666666656)"/><use xlink:href="#k" transform="matrix(1,0,0,1,2308,88) translate(379.9722222222222 25.066666666666656)"/><use xlink:href="#l" transform="matrix(1,0,0,1,2308,88) translate(411.21851851851847 25.066666666666656)"/><path d="M960 120c0 33.14-35.82 60-80 60s-80-26.86-80-60 35.82-60 80-60 80 26.86 80 60z" stroke="#000" stroke-opacity="0" fill="#ced4db"/><use xlink:href="#m" transform="matrix(1,0,0,1,824,84) translate(32.839506172839506 39.55555555555556)"/><path d="M960 287.7c0 33.15-35.82 60-80 60s-80-26.85-80-60c0-33.12 35.82-60 80-60s80 26.88 80 60z" stroke="#000" stroke-opacity="0" fill="#ced4db"/><use xlink:href="#n" transform="matrix(1,0,0,1,824,251.71441673340018) translate(35.33333333333334 28.888888888888886)"/><use xlink:href="#o" transform="matrix(1,0,0,1,824,251.71441673340018) translate(19.012345679012356 50.22222222222222)"/><path d="M1180 120c0 33.14-35.82 60-80 60s-80-26.86-80-60 35.82-60 80-60 80 26.86 80 60z" stroke="#000" stroke-opacity="0" fill="#ced4db"/><use xlink:href="#p" transform="matrix(1,0,0,1,1044,84) translate(31.33333333333334 39.55555555555556)"/><path d="M1180 300c0 33.14-35.82 60-80 60s-80-26.86-80-60 35.82-60 80-60 80 26.86 80 60z" stroke="#000" stroke-opacity="0" fill="#ced4db"/><use xlink:href="#q" transform="matrix(1,0,0,1,1044,264) translate(25.90123456790124 39.55555555555556)"/><path d="M1076.77 460c0 33.14-35.82 60-80 60s-80-26.86-80-60 35.82-60 80-60 80 26.86 80 60z" stroke="#000" stroke-opacity="0" fill="#ced4db"/><use xlink:href="#r" transform="matrix(1,0,0,1,940.77087362579,424) translate(33.80246913580247 18.22222222222222)"/><use xlink:href="#s" transform="matrix(1,0,0,1,940.77087362579,424) translate(-6.592592592592581 39.55555555555556)"/><use xlink:href="#t" transform="matrix(1,0,0,1,940.77087362579,424) translate(30.37037037037038 60.888888888888886)"/><path d="M1715.13 209.6c0 33.14-35.82 60-80 60-44.2 0-80-26.86-80-60s35.8-60 80-60c44.18 0 80 26.86 80 60z" stroke="#000" stroke-opacity="0" fill="#9391ff"/><use xlink:href="#u" transform="matrix(1,0,0,1,1579.127717413724,173.6) translate(-0.24691358024690402 39.55555555555556)"/><path d="M1896.77 120c0 33.14-35.82 60-80 60s-80-26.86-80-60 35.82-60 80-60 80 26.86 80 60z" stroke="#000" stroke-opacity="0" fill="#9391ff"/><use xlink:href="#v" transform="matrix(1,0,0,1,1760.77087362579,84) translate(21.975308641975317 39.55555555555556)"/><path d="M2076.77 200c0 33.14-35.82 60-80 60s-80-26.86-80-60 35.82-60 80-60 80 26.86 80 60z" stroke="#000" stroke-opacity="0" fill="#9391ff"/><use xlink:href="#w" transform="matrix(1,0,0,1,1940.77087362579,164) translate(13.1604938271605 39.55555555555556)"/><path d="M1900 287.7c0 33.15-35.82 60-80 60s-80-26.85-80-60c0-33.12 35.82-60 80-60s80 26.88 80 60z" stroke="#000" stroke-opacity="0" fill="#9391ff"/><use xlink:href="#x" transform="matrix(1,0,0,1,1764,251.71441673340018) translate(27.87654320987655 28.888888888888886)"/><use xlink:href="#y" transform="matrix(1,0,0,1,1764,251.71441673340018) translate(10.641975308641989 50.22222222222222)"/><path d="M1896.77 480c0 33.14-35.82 60-80 60s-80-26.86-80-60 35.82-60 80-60 80 26.86 80 60z" stroke="#000" stroke-opacity="0" fill="#9391ff"/><use xlink:href="#z" transform="matrix(1,0,0,1,1760.77087362579,444) translate(36.32098765432099 18.22222222222222)"/><use xlink:href="#A" transform="matrix(1,0,0,1,1760.77087362579,444) translate(12.617283950617292 39.55555555555556)"/><use xlink:href="#B" transform="matrix(1,0,0,1,1760.77087362579,444) translate(87.53086419753086 39.55555555555556)"/><use xlink:href="#C" transform="matrix(1,0,0,1,1760.77087362579,444) translate(24.41975308641976 60.888888888888886)"/><path d="M1720 407.7c0 33.15-35.82 60-80 60s-80-26.85-80-60c0-33.12 35.82-60 80-60s80 26.88 80 60z" stroke="#000" stroke-opacity="0" fill="#9391ff"/><use xlink:href="#D" transform="matrix(1,0,0,1,1584,371.7144167334002) translate(0.27160493827162213 39.55555555555556)"/><use xlink:href="#E" transform="matrix(1,0,0,1,1584,371.7144167334002) translate(69.30864197530865 39.55555555555556)"/><path d="M2076.77 400c0 33.14-35.82 60-80 60s-80-26.86-80-60 35.82-60 80-60 80 26.86 80 60z" stroke="#000" stroke-opacity="0" fill="#9391ff"/><use xlink:href="#F" transform="matrix(1,0,0,1,1940.77087362579,364) translate(36.24691358024692 28.888888888888886)"/><use xlink:href="#G" transform="matrix(1,0,0,1,1940.77087362579,364) translate(17.037037037037045 50.22222222222222)"/><path d="M1274.54 354.13H1523.12" stroke="#333" fill="none"/><path d="M1274.56 354.63h-.52v-1h.52z" stroke="#333" stroke-width=".05" fill="#333"/><path d="M1537.88 354.13l-14.27 4.64.02-9.27z" stroke="#333" fill="#333"/><use xlink:href="#H" transform="matrix(1,0,0,1,1347.8708879796473,328.5354310676174) translate(0 14.4)"/><use xlink:href="#I" transform="matrix(1,0,0,1,1347.8708879796473,328.5354310676174) translate(79.85000000000001 14.4)"/><path d="M1539 203.45h-248.57" stroke="#333" fill="none"/><path d="M1539.5 203.95h-.5v-1h.5z" stroke="#333" stroke-width=".05" fill="#333"/><path d="M1275.66 203.45l14.27-4.64v9.28z" stroke="#333" fill="#333"/><use xlink:href="#J" transform="matrix(1,0,0,1,1339.8458614421102,177.84706701537314) translate(0 14.4)"/><use xlink:href="#I" transform="matrix(1,0,0,1,1339.8458614421102,177.84706701537314) translate(95.9 14.4)"/><path d="M1811.9 920c0 33.14-35.82 60-80 60s-80-26.86-80-60 35.82-60 80-60 80 26.86 80 60z" stroke="#000" stroke-opacity="0" fill="#cfe4ff"/><use xlink:href="#K" transform="matrix(1,0,0,1,1675.898591039514,884) translate(-0.24691358024690402 28.888888888888886)"/><use xlink:href="#L" transform="matrix(1,0,0,1,1675.898591039514,884) translate(18.543209876543216 50.22222222222222)"/><path d="M2031.9 920c0 33.14-35.82 60-80 60s-80-26.86-80-60 35.82-60 80-60 80 26.86 80 60z" stroke="#000" stroke-opacity="0" fill="#cfe4ff"/><use xlink:href="#M" transform="matrix(1,0,0,1,1895.898591039514,884) translate(5.851851851851862 39.55555555555556)"/><use xlink:href="#N" transform="matrix(1,0,0,1,1895.898591039514,884) translate(77.50617283950616 39.55555555555556)"/><path d="M1811.9 1060c0 33.14-35.82 60-80 60s-80-26.86-80-60 35.82-60 80-60 80 26.86 80 60z" stroke="#000" stroke-opacity="0" fill="#cfe4ff"/><use xlink:href="#O" transform="matrix(1,0,0,1,1675.898591039514,1024) translate(24.41975308641976 18.22222222222222)"/><use xlink:href="#P" transform="matrix(1,0,0,1,1675.898591039514,1024) translate(24.96296296296297 39.55555555555556)"/><use xlink:href="#Q" transform="matrix(1,0,0,1,1675.898591039514,1024) translate(22.98765432098766 60.888888888888886)"/><path d="M2031.9 1060c0 33.14-35.82 60-80 60s-80-26.86-80-60 35.82-60 80-60 80 26.86 80 60z" stroke="#000" stroke-opacity="0" fill="#cfe4ff"/><use xlink:href="#R" transform="matrix(1,0,0,1,1895.898591039514,1024) translate(8.641975308641989 28.888888888888886)"/><use xlink:href="#S" transform="matrix(1,0,0,1,1895.898591039514,1024) translate(21.975308641975317 50.22222222222222)"/><path d="M2040 1200c0 33.14-35.82 60-80 60s-80-26.86-80-60 35.82-60 80-60 80 26.86 80 60z" stroke="#000" stroke-opacity="0" fill="#cfe4ff"/><use xlink:href="#r" transform="matrix(1,0,0,1,1904,1164) translate(33.80246913580247 14.222222222222221)"/><use xlink:href="#T" transform="matrix(1,0,0,1,1904,1164) translate(21.4320987654321 35.55555555555556)"/><use xlink:href="#s" transform="matrix(1,0,0,1,1904,1164) translate(-6.592592592592581 56.888888888888886)"/><use xlink:href="#U" transform="matrix(1,0,0,1,1904,1164) translate(9.629629629629633 78.22222222222223)"/><path d="M1816.77 568.7v214.42" stroke="#333" fill="none"/><path d="M1817.27 568.73h-1v-.52h1z" stroke="#333" stroke-width=".05" fill="#333"/><path d="M1816.77 797.88l-4.63-14.26h9.27z" stroke="#333" fill="#333"/><use xlink:href="#J" transform="matrix(1,0,0,1,1674.9208736003836,673.0572099071203) translate(0 14.4)"/><use xlink:href="#I" transform="matrix(1,0,0,1,1674.9208736003836,673.0572099071203) translate(95.9 14.4)"/><path d="M1935.5 799V584.6" stroke="#333" fill="none"/><path d="M1936 799.5h-1v-.5h1z" stroke="#333" stroke-width=".05" fill="#333"/><path d="M1935.5 569.83l4.63 14.27h-9.27z" stroke="#333" fill="#333"/><use xlink:href="#H" transform="matrix(1,0,0,1,1943.4964588553605,673.0571878203548) translate(0 14.4)"/><use xlink:href="#I" transform="matrix(1,0,0,1,1943.4964588553605,673.0571878203548) translate(79.85000000000001 14.4)"/><path d="M1768.67-500c0 33.14-35.82 60-80 60s-80-26.86-80-60 35.82-60 80-60 80 26.86 80 60z" stroke="#000" stroke-opacity="0" fill="#008573"/><use xlink:href="#V" transform="matrix(1,0,0,1,1632.669464665304,-536) translate(26.395061728395063 28.888888888888886)"/><use xlink:href="#W" transform="matrix(1,0,0,1,1632.669464665304,-536) translate(14.617283950617292 50.22222222222222)"/><path d="M1776.77-630.4c0 33.14-35.82 60-80 60s-80-26.86-80-60 35.82-60 80-60 80 26.86 80 60z" stroke="#000" stroke-opacity="0" fill="#008573"/><use xlink:href="#X" transform="matrix(1,0,0,1,1640.77087362579,-666.4) translate(37.28395061728395 28.888888888888886)"/><use xlink:href="#Y" transform="matrix(1,0,0,1,1640.77087362579,-666.4) translate(9.135802469135811 50.22222222222222)"/><path d="M2016.77-620c0 33.14-35.82 60-80 60s-80-26.86-80-60 35.82-60 80-60 80 26.86 80 60z" stroke="#000" stroke-opacity="0" fill="#008573"/><use xlink:href="#Z" transform="matrix(1,0,0,1,1880.77087362579,-656) translate(14.049382716049394 18.22222222222222)"/><use xlink:href="#aa" transform="matrix(1,0,0,1,1880.77087362579,-656) translate(68.32098765432099 18.22222222222222)"/><use xlink:href="#ab" transform="matrix(1,0,0,1,1880.77087362579,-656) translate(25.90123456790124 39.55555555555556)"/><use xlink:href="#Y" transform="matrix(1,0,0,1,1880.77087362579,-656) translate(9.135802469135811 60.888888888888886)"/><path d="M2016.77-486.14c0 33.13-35.82 60-80 60s-80-26.87-80-60c0-33.14 35.82-60 80-60s80 26.86 80 60z" stroke="#000" stroke-opacity="0" fill="#008573"/><use xlink:href="#ac" transform="matrix(1,0,0,1,1880.77087362579,-522.1427916332999) translate(21.506172839506178 18.22222222222222)"/><use xlink:href="#ad" transform="matrix(1,0,0,1,1880.77087362579,-522.1427916332999) translate(20.96296296296297 39.55555555555556)"/><use xlink:href="#ae" transform="matrix(1,0,0,1,1880.77087362579,-522.1427916332999) translate(24.96296296296297 60.888888888888886)"/><path d="M1913.54-330c0 38.66-42.96 70-95.95 70-53 0-95.96-31.34-95.96-70s42.96-70 95.95-70c52.98 0 95.94 31.34 95.94 70z" stroke="#000" stroke-opacity="0" fill="#008573"/><use xlink:href="#af" transform="matrix(1,0,0,1,1750.4279448679931,-372) translate(7.376543209876559 24.22222222222222)"/><use xlink:href="#ag" transform="matrix(1,0,0,1,1750.4279448679931,-372) translate(53.64814814814815 24.22222222222222)"/><use xlink:href="#ah" transform="matrix(1,0,0,1,1750.4279448679931,-372) translate(3.845679012345691 45.55555555555556)"/><use xlink:href="#ai" transform="matrix(1,0,0,1,1750.4279448679931,-372) translate(51.25308641975309 45.55555555555556)"/><use xlink:href="#aj" transform="matrix(1,0,0,1,1750.4279448679931,-372) translate(85.82098765432099 45.55555555555556)"/><use xlink:href="#ak" transform="matrix(1,0,0,1,1750.4279448679931,-372) translate(41.87037037037038 66.88888888888889)"/><path d="M1722.27-21v-154.4" stroke="#333" fill="none"/><path d="M1722.77-20.5h-1v-.5h1z" stroke="#333" stroke-width=".05" fill="#333"/><path d="M1722.27-190.17l4.64 14.27h-9.26z" stroke="#333" fill="#333"/><use xlink:href="#H" transform="matrix(1,0,0,1,1596.473332033469,-116.94277392042743) translate(0 14.4)"/><use xlink:href="#I" transform="matrix(1,0,0,1,1596.473332033469,-116.94277392042743) translate(79.85000000000001 14.4)"/><path d="M1904.2-191.3v154.42" stroke="#333" fill="none"/><path d="M1904.7-191.27h-1v-.52h1z" stroke="#333" stroke-width=".05" fill="#333"/><path d="M1904.2-22.12l-4.64-14.26h9.27z" stroke="#333" fill="#333"/><g><use xlink:href="#J" transform="matrix(1,0,0,1,1912.1931079711358,-116.94280776333856) translate(0 14.4)"/><use xlink:href="#I" transform="matrix(1,0,0,1,1912.1931079711358,-116.94280776333856) translate(95.9 14.4)"/></g><path d="M860 483.47v14.67c0 6.03-8.4 10-21.36 10-11.04 0-22.32-3.07-22.32-10V485h-19.08V516.77c0 7.92-11.76 13.23-29.28 13.23-17.28 0-27.96-5.04-27.96-13.23v-63.99-.1c0-8.72 15.24-12.68 29.4-12.68 16.68 0 27.96 5.13 27.96 12.7 0 .17-.12.44-.12.7v26.11h19.08v-10.16h.12c0-.36-.12-.63-.12-.9 0-7.2 11.64-10.44 22.32-10.44 12.84 0 21.36 4.23 21.36 10.44 0 .27 0 .54-.12.9h.12v14.13zm-90.6 3.06c-8.88 0-18.24-1.53-24-4.86v14.85c.12 2.97 9.36 7.1 24 7.1 14.4 0 21.84-3.86 22.44-6.65v-15.03c-4.92 2.97-12.72 4.6-22.44 4.6zm-24-12.6c.12 2.88 9.36 7.1 24 7.1 14.52 0 21.84-3.95 22.44-6.74v-13.6c-4.92 2.88-12.72 4.6-22.44 4.6-8.88 0-18.24-1.54-24-4.87zm22.56 50.58c15.6 0 23.88-4.5 23.88-7.73v-12.24c-4.92 2.97-12.72 4.6-22.44 4.6-8.88 0-18.24-1.54-24-4.87v12.5c0 3.8 7.92 7.75 22.56 7.75zm1.44-79c-14.64 0-24 4.22-24 7.2 0 2.87 9.36 7.1 24 7.1 13.8 0 21.72-3.87 22.44-6.75v-.27-.1c0-2.96-7.92-7.2-22.44-7.2zm52.44 29.96v9.36c2.52 1.8 8.52 3.33 16.2 3.33 11.04 0 16.44-2.97 16.56-4.68v-7.74c-3.84 1.9-9.24 3.06-15.96 3.06-6.12 0-12.48-1.1-16.8-3.34zm16.8 27.18c10.44 0 15.96-2.97 15.96-4.5v-7.56c-3.84 1.98-9.6 3.06-16.56 3.06-5.4 0-11.64-.72-16.2-2.7v7.2c0 1.35 5.76 4.5 16.8 4.5zm0-39.06c-11.04 0-16.8 3.33-16.8 4.86 0 1.44 5.76 4.86 16.8 4.86 10.56 0 15.96-3.15 15.96-4.86 0-1.8-5.4-4.86-15.96-4.86z" stroke="#000" stroke-opacity="0" fill="#979ea8"/><path d="M1563.72-300h112.68c1.92-.08 3.48 1.36 3.6 3.23v78.54c-.12 1.87-1.68 3.3-3.6 3.23h-112.68c-1.92.1-3.6-1.36-3.72-3.23v-78.37c.12-1.95 1.68-3.48 3.6-3.4z" stroke="#000" stroke-opacity="0" fill="url(#al)"/><path d="M1644.02-289.55h8.25c.65 0 .98.32.98 1v60.4c0 .68-.33 1-.98 1h-8.25c-.65 0-.98-.32-.98-1v-60.4c0-.68.33-1 .98-1z" stroke="#000" stroke-opacity="0" fill="#fff" fill-opacity=".9"/><path d="M1571.93-239.9h54.95c.74 0 1.1.34 1.1 1.05v10.8c0 .72-.36 1.06-1.1 1.06h-54.95c-.74 0-1.08-.33-1.08-1.04v-10.8c0-.72.34-1.06 1.08-1.06z" stroke="#000" stroke-opacity="0" fill="#fff" fill-opacity=".6"/><path d="M1659.52-263.96h8.7c.5 0 .75.26.75.74v35.4c0 .5-.25.75-.75.75h-8.7c-.5 0-.76-.26-.76-.74v-35.42c0-.48.26-.74.76-.74z" stroke="#000" stroke-opacity="0" fill="#fff" fill-opacity=".9"/><path d="M1620.76-285.72l-14.18 25.3-15-15.34-15.5 20.12 3.6 2.83 12.28-15.87 15.6 15.93 17.24-30.67-4.04-2.32z" stroke="#000" stroke-opacity="0" fill="#fff"/><path d="M1591.76-278.07c3.22 0 5.84 2.63 5.84 5.87 0 3.23-2.62 5.86-5.84 5.86-3.22 0-5.84-2.63-5.84-5.87s2.62-5.87 5.84-5.87zM1607.6-263.54c3.22 0 5.84 2.63 5.84 5.87s-2.62 5.87-5.84 5.87c-3.22 0-5.84-2.63-5.84-5.87s2.62-5.87 5.84-5.87zM1622.24-289.7c3.22 0 5.84 2.6 5.84 5.85 0 3.24-2.62 5.87-5.84 5.87-3.22 0-5.84-2.63-5.84-5.87s2.62-5.86 5.84-5.86zM1578.44-261c3.22 0 5.84 2.64 5.84 5.88 0 3.24-2.62 5.87-5.84 5.87-3.23 0-5.84-2.63-5.84-5.87s2.62-5.87 5.84-5.87z" stroke="#000" stroke-opacity="0" fill="#fff"/><path d="M1811.9 1200c0 33.14-35.82 60-80 60s-80-26.86-80-60 35.82-60 80-60 80 26.86 80 60z" stroke="#000" stroke-opacity="0" fill="#cfe4ff"/><g><use xlink:href="#am" transform="matrix(1,0,0,1,1675.898591039514,1164) translate(1.3333333333333428 39.55555555555556)"/><use xlink:href="#Q" transform="matrix(1,0,0,1,1675.898591039514,1164) translate(44.64197530864198 39.55555555555556)"/></g><path d="M2620 366.14c0 33.14-35.82 60-80 60s-80-26.86-80-60c0-33.13 35.82-60 80-60s80 26.87 80 60z" stroke="#000" stroke-opacity="0" fill="#00c2a8"/><g><use xlink:href="#an" transform="matrix(1,0,0,1,2484,330.1427916332999) translate(18.98765432098766 39.55555555555556)"/></g><path d="M2480 200c0 33.14-35.82 60-80 60s-80-26.86-80-60 35.82-60 80-60 80 26.86 80 60z" stroke="#000" stroke-opacity="0" fill="#00c2a8"/><g><use xlink:href="#ao" transform="matrix(1,0,0,1,2344,164) translate(35.33333333333334 28.888888888888886)"/><use xlink:href="#ap" transform="matrix(1,0,0,1,2344,164) translate(14.567901234567906 50.22222222222222)"/></g><path d="M2833.54 200c0 33.14-35.82 60-80 60s-80-26.86-80-60 35.82-60 80-60 80 26.86 80 60z" stroke="#000" stroke-opacity="0" fill="#00c2a8"/><g><use xlink:href="#aq" transform="matrix(1,0,0,1,2697.54174725158,164) translate(16.098765432098773 39.55555555555556)"/></g><path d="M2800 366.14c0 33.14-35.82 60-80 60s-80-26.86-80-60c0-33.13 35.82-60 80-60s80 26.87 80 60z" stroke="#000" stroke-opacity="0" fill="#00c2a8"/><g><use xlink:href="#ar" transform="matrix(1,0,0,1,2664,330.1427916332999) translate(22.864197530864203 39.55555555555556)"/></g><path d="M2576.77 457.14V1028a12 12 0 0 1-12 12h-439.22" stroke="#333" fill="none"/><path d="M2577.27 457.16h-1v-.52h1z" stroke="#333" stroke-width=".05" fill="#333"/><path d="M2110.8 1040l14.25-4.63v9.27z" stroke="#333" fill="#333"/><g><use xlink:href="#J" transform="matrix(1,0,0,1,2584.7708735901665,742.0654019476965) translate(0 14.4)"/><use xlink:href="#I" transform="matrix(1,0,0,1,2584.7708735901665,742.0654019476965) translate(95.9 14.4)"/></g><path d="M2109.67 975.34h346.92a12 12 0 0 0 12-12v-490.3" stroke="#333" fill="none"/><path d="M2109.68 975.84h-.5v-1h.5z" stroke="#333" stroke-width=".05" fill="#333"/><path d="M2468.6 458.26l4.63 14.27h-9.27z" stroke="#333" fill="#333"/><g><use xlink:href="#H" transform="matrix(1,0,0,1,2342.7914362591523,747.8576048454997) translate(0 14.4)"/><use xlink:href="#I" transform="matrix(1,0,0,1,2342.7914362591523,747.8576048454997) translate(79.85000000000001 14.4)"/></g><path d="M2299 318.44h-188.57" stroke="#333" fill="none"/><path d="M2299.5 318.94h-.5v-1h.5z" stroke="#333" stroke-width=".05" fill="#333"/><path d="M2095.66 318.44l14.27-4.64v9.27z" stroke="#333" fill="#333"/><g><use xlink:href="#J" transform="matrix(1,0,0,1,2129.845884391695,292.8390539232232) translate(0 14.4)"/><use xlink:href="#I" transform="matrix(1,0,0,1,2129.845884391695,292.8390539232232) translate(95.9 14.4)"/></g><path d="M2094.54 193.1h188.57" stroke="#333" fill="none"/><path d="M2094.55 193.6h-.5v-1h.5z" stroke="#333" stroke-width=".05" fill="#333"/><path d="M2297.88 193.1l-14.27 4.63v-9.27z" stroke="#333" fill="#333"/><g><use xlink:href="#J" transform="matrix(1,0,0,1,2129.8458560274676,167.49450116195558) translate(0 14.4)"/><use xlink:href="#I" transform="matrix(1,0,0,1,2129.8458560274676,167.49450116195558) translate(95.9 14.4)"/></g><path d="M2392.17 320h-64.5c-4.24 0-7.67 3.72-7.67 8.28v103.44c0 4.56 3.43 8.28 7.66 8.28h64.5c4.24 0 7.68-3.72 7.68-8.28V328.28c0-4.56-3.44-8.28-7.67-8.28zm-44.23 5.4h24.2c2.07 0 3.5.24 3.5 1.68 0 1.68-1.43 1.68-3.5 1.68h-24.2c-2 0-3.43 0-3.43-1.68 0-1.44 1.7-1.68 3.44-1.68zm19.08 105.84h-13.73c-1.37 0-2.56-1.2-2.56-2.88 0-1.44 1.2-2.88 2.55-2.88H2367c1.44 0 2.56 1.44 2.56 2.88s-1.12 2.88-2.56 2.88zm24.27-11.4h-62.76v-85.56h62.75v85.56z" stroke="#000" stroke-opacity="0"/><path d="M2656.77 200c0 33.14-35.82 60-80 60s-80-26.86-80-60 35.82-60 80-60 80 26.86 80 60z" stroke="#000" stroke-opacity="0" fill="#00c2a8"/><g><use xlink:href="#ao" transform="matrix(1,0,0,1,2520.77087362579,164) translate(35.33333333333334 28.888888888888886)"/><use xlink:href="#as" transform="matrix(1,0,0,1,2520.77087362579,164) translate(18.049382716049386 50.22222222222222)"/></g><defs><path fill="#3a414a" d="M24-248c120-7 223 5 221 122C244-46 201 0 124 0H24v-248zM76-40c74 7 117-18 117-86 0-67-45-88-117-82v168" id="at"/><path fill="#3a414a" d="M133-34C117-15 103 5 69 4 32 3 11-16 11-54c-1-60 55-63 116-61 1-26-3-47-28-47-18 1-26 9-28 27l-52-2c7-38 36-58 82-57s74 22 75 68l1 82c-1 14 12 18 25 15v27c-30 8-71 5-69-32zm-48 3c29 0 43-24 42-57-32 0-66-3-65 30 0 17 8 27 23 27" id="au"/><path fill="#3a414a" d="M115-3C79 11 28 4 28-45v-112H4v-33h27l15-45h31v45h36v33H77v99c-1 23 16 31 38 25v30" id="av"/><path fill="#3a414a" d="M135-194c52 0 70 43 70 98 0 56-19 99-73 100-30 1-46-15-58-35L72 0H24l1-261h50v104c11-23 29-37 60-37zM114-30c31 0 40-27 40-66 0-37-7-63-39-63s-41 28-41 65c0 36 8 64 40 64" id="aw"/><path fill="#3a414a" d="M137-138c1-29-70-34-71-4 15 46 118 7 119 86 1 83-164 76-172 9l43-7c4 19 20 25 44 25 33 8 57-30 24-41C81-84 22-81 20-136c-2-80 154-74 161-7" id="ax"/><path fill="#3a414a" d="M185-48c-13 30-37 53-82 52C43 2 14-33 14-96s30-98 90-98c62 0 83 45 84 108H66c0 31 8 55 39 56 18 0 30-7 34-22zm-45-69c5-46-57-63-70-21-2 6-4 13-4 21h74" id="ay"/><g id="a"><use transform="matrix(0.08703703703703697,0,0,0.08703703703703697,0,0)" xlink:href="#at"/><use transform="matrix(0.08703703703703697,0,0,0.08703703703703697,22.542592592592573,0)" xlink:href="#au"/><use transform="matrix(0.08703703703703697,0,0,0.08703703703703697,39.94999999999997,0)" xlink:href="#av"/><use transform="matrix(0.08703703703703697,0,0,0.08703703703703697,50.30740740740737,0)" xlink:href="#au"/><use transform="matrix(0.08703703703703697,0,0,0.08703703703703697,67.71481481481476,0)" xlink:href="#aw"/><use transform="matrix(0.08703703703703697,0,0,0.08703703703703697,86.77592592592586,0)" xlink:href="#au"/><use transform="matrix(0.08703703703703697,0,0,0.08703703703703697,104.18333333333325,0)" xlink:href="#ax"/><use transform="matrix(0.08703703703703697,0,0,0.08703703703703697,121.59074074074064,0)" xlink:href="#ay"/></g><path fill="#3a414a" d="M169-182c-1-43-94-46-97-3 18 66 151 10 154 114 3 95-165 93-204 36-6-8-10-19-12-30l50-8c3 46 112 56 116 5-17-69-150-10-154-114-4-87 153-88 188-35 5 8 8 18 10 28" id="az"/><path fill="#3a414a" d="M135-150c-39-12-60 13-60 57V0H25l-1-190h47c2 13-1 29 3 40 6-28 27-53 61-41v41" id="aA"/><path fill="#3a414a" d="M128 0H69L1-190h53L99-40l48-150h52" id="aB"/><g id="b"><use transform="matrix(0.087037037037037,0,0,0.087037037037037,0,0)" xlink:href="#az"/><use transform="matrix(0.087037037037037,0,0,0.087037037037037,20.88888888888888,0)" xlink:href="#ay"/><use transform="matrix(0.087037037037037,0,0,0.087037037037037,38.296296296296276,0)" xlink:href="#aA"/><use transform="matrix(0.087037037037037,0,0,0.087037037037037,50.481481481481445,0)" xlink:href="#aB"/><use transform="matrix(0.087037037037037,0,0,0.087037037037037,67.88888888888886,0)" xlink:href="#ay"/><use transform="matrix(0.087037037037037,0,0,0.087037037037037,85.29629629629625,0)" xlink:href="#aA"/></g><path fill="#3a414a" d="M67-93c0 74 22 123 53 168H70C40 30 18-18 18-93s22-123 52-168h50c-32 44-53 94-53 168" id="aC"/><path fill="#3a414a" d="M182-130c37 4 62 22 62 59C244 23 116-4 24 0v-248c84 5 203-23 205 63 0 31-19 50-47 55zM76-148c40-3 101 13 101-30 0-44-60-28-101-31v61zm0 110c48-3 116 14 116-37 0-48-69-32-116-35v72" id="aD"/><path fill="#3a414a" d="M190-63c-7 42-38 67-86 67-59 0-84-38-90-98-12-110 154-137 174-36l-49 2c-2-19-15-32-35-32-30 0-35 28-38 64-6 74 65 87 74 30" id="aE"/><path fill="#3a414a" d="M147 0L96-86 75-71V0H25v-261h50v150l67-79h53l-66 74L201 0h-54" id="aF"/><path fill="#3a414a" d="M135-194c87-1 58 113 63 194h-50c-7-57 23-157-34-157-59 0-34 97-39 157H25l-1-190h47c2 12-1 28 3 38 12-26 28-41 61-42" id="aG"/><path fill="#3a414a" d="M88-194c31-1 46 15 58 34l-1-101h50l1 261h-48c-2-10 0-23-3-31C134-8 116 4 84 4 32 4 16-41 15-95c0-56 19-97 73-99zm17 164c33 0 40-30 41-66 1-37-9-64-41-64s-38 30-39 65c0 43 13 65 39 65" id="aH"/><path fill="#3a414a" d="M102-93c0 74-22 123-52 168H0C30 29 54-18 53-93c0-74-22-123-53-168h50c30 45 52 94 52 168" id="aI"/><g id="c"><use transform="matrix(0.087037037037037,0,0,0.087037037037037,0,0)" xlink:href="#aC"/><use transform="matrix(0.087037037037037,0,0,0.087037037037037,10.357407407407402,0)" xlink:href="#aD"/><use transform="matrix(0.087037037037037,0,0,0.087037037037037,32.899999999999984,0)" xlink:href="#au"/><use transform="matrix(0.087037037037037,0,0,0.087037037037037,50.30740740740738,0)" xlink:href="#aE"/><use transform="matrix(0.087037037037037,0,0,0.087037037037037,67.71481481481479,0)" xlink:href="#aF"/><use transform="matrix(0.087037037037037,0,0,0.087037037037037,85.12222222222218,0)" xlink:href="#ay"/><use transform="matrix(0.087037037037037,0,0,0.087037037037037,102.52962962962957,0)" xlink:href="#aG"/><use transform="matrix(0.087037037037037,0,0,0.087037037037037,121.59074074074067,0)" xlink:href="#aH"/><use transform="matrix(0.087037037037037,0,0,0.087037037037037,140.65185185185177,0)" xlink:href="#aI"/></g><path fill="#3a414a" d="M136-208V0H84v-208H4v-40h212v40h-80" id="aJ"/><path fill="#3a414a" d="M114-157C55-157 80-60 75 0H25v-261h50l-1 109c12-26 28-41 61-42 86-1 58 113 63 194h-50c-7-57 23-157-34-157" id="aK"/><path fill="#3a414a" d="M25-224v-37h50v37H25zM25 0v-190h50V0H25" id="aL"/><g id="d"><use transform="matrix(0.087037037037037,0,0,0.087037037037037,0,0)" xlink:href="#aJ"/><use transform="matrix(0.087037037037037,0,0,0.087037037037037,19.061111111111103,0)" xlink:href="#aK"/><use transform="matrix(0.087037037037037,0,0,0.087037037037037,38.122222222222206,0)" xlink:href="#aL"/><use transform="matrix(0.087037037037037,0,0,0.087037037037037,46.8259259259259,0)" xlink:href="#aA"/><use transform="matrix(0.087037037037037,0,0,0.087037037037037,59.01111111111107,0)" xlink:href="#aH"/></g><path fill="#3a414a" d="M24-248c93 1 206-16 204 79-1 75-69 88-152 82V0H24v-248zm52 121c47 0 100 7 100-41 0-47-54-39-100-39v80" id="aM"/><g id="e"><use transform="matrix(0.087037037037037,0,0,0.087037037037037,0,0)" xlink:href="#aM"/><use transform="matrix(0.087037037037037,0,0,0.087037037037037,20.88888888888888,0)" xlink:href="#au"/><use transform="matrix(0.087037037037037,0,0,0.087037037037037,38.296296296296276,0)" xlink:href="#aA"/><use transform="matrix(0.087037037037037,0,0,0.087037037037037,50.481481481481445,0)" xlink:href="#av"/><use transform="matrix(0.087037037037037,0,0,0.087037037037037,60.83888888888885,0)" xlink:href="#aL"/><use transform="matrix(0.087037037037037,0,0,0.087037037037037,69.54259259259256,0)" xlink:href="#ay"/><use transform="matrix(0.087037037037037,0,0,0.087037037037037,86.94999999999996,0)" xlink:href="#ax"/></g><path fill="#3a414a" d="M110-194c64 0 96 36 96 99 0 64-35 99-97 99-61 0-95-36-95-99 0-62 34-99 96-99zm-1 164c35 0 45-28 45-65 0-40-10-65-43-65-34 0-45 26-45 65 0 36 10 65 43 65" id="aN"/><g id="f"><use transform="matrix(0.087037037037037,0,0,0.087037037037037,0,0)" xlink:href="#at"/><use transform="matrix(0.087037037037037,0,0,0.087037037037037,22.54259259259258,0)" xlink:href="#au"/><use transform="matrix(0.087037037037037,0,0,0.087037037037037,39.949999999999974,0)" xlink:href="#ax"/><use transform="matrix(0.087037037037037,0,0,0.087037037037037,57.35740740740737,0)" xlink:href="#aK"/><use transform="matrix(0.087037037037037,0,0,0.087037037037037,76.41851851851848,0)" xlink:href="#aw"/><use transform="matrix(0.087037037037037,0,0,0.087037037037037,95.47962962962958,0)" xlink:href="#aN"/><use transform="matrix(0.087037037037037,0,0,0.087037037037037,114.54074074074069,0)" xlink:href="#au"/><use transform="matrix(0.087037037037037,0,0,0.087037037037037,131.94814814814808,0)" xlink:href="#aA"/><use transform="matrix(0.087037037037037,0,0,0.087037037037037,144.13333333333327,0)" xlink:href="#aH"/></g><path fill="#3a414a" d="M199 0l-22-63H83L61 0H9l90-248h61L250 0h-51zm-33-102l-36-108c-10 38-24 72-36 108h72" id="aO"/><path fill="#3a414a" d="M220-157c-53 9-28 100-34 157h-49v-107c1-27-5-49-29-50C55-147 81-57 75 0H25l-1-190h47c2 12-1 28 3 38 10-53 101-56 108 0 13-22 24-43 59-42 82 1 51 116 57 194h-49v-107c-1-25-5-48-29-50" id="aP"/><g id="g"><use transform="matrix(0.087037037037037,0,0,0.087037037037037,0,0)" xlink:href="#aC"/><use transform="matrix(0.087037037037037,0,0,0.087037037037037,10.357407407407402,0)" xlink:href="#aO"/><use transform="matrix(0.087037037037037,0,0,0.087037037037037,32.899999999999984,0)" xlink:href="#aH"/><use transform="matrix(0.087037037037037,0,0,0.087037037037037,51.96111111111109,0)" xlink:href="#aP"/><use transform="matrix(0.087037037037037,0,0,0.087037037037037,79.81296296296293,0)" xlink:href="#aL"/><use transform="matrix(0.087037037037037,0,0,0.087037037037037,88.51666666666662,0)" xlink:href="#aG"/></g><path fill="#3a414a" d="M25 0v-261h50V0H25" id="aQ"/><g id="h"><use transform="matrix(0.087037037037037,0,0,0.087037037037037,0,0)" xlink:href="#aM"/><use transform="matrix(0.087037037037037,0,0,0.087037037037037,20.88888888888888,0)" xlink:href="#au"/><use transform="matrix(0.087037037037037,0,0,0.087037037037037,38.296296296296276,0)" xlink:href="#aG"/><use transform="matrix(0.087037037037037,0,0,0.087037037037037,57.35740740740738,0)" xlink:href="#ay"/><use transform="matrix(0.087037037037037,0,0,0.087037037037037,74.76481481481477,0)" xlink:href="#aQ"/><use transform="matrix(0.087037037037037,0,0,0.087037037037037,83.46851851851847,0)" xlink:href="#aI"/></g><path fill="#3a414a" d="M135-194c53 0 70 44 70 98 0 56-19 98-73 100-31 1-45-17-59-34 3 33 2 69 2 105H25l-1-265h48c2 10 0 23 3 31 11-24 29-35 60-35zM114-30c33 0 39-31 40-66 0-38-9-64-40-64-56 0-55 130 0 130" id="aR"/><g id="i"><use transform="matrix(0.087037037037037,0,0,0.087037037037037,0,0)" xlink:href="#aO"/><use transform="matrix(0.087037037037037,0,0,0.087037037037037,22.54259259259258,0)" xlink:href="#aR"/><use transform="matrix(0.087037037037037,0,0,0.087037037037037,41.60370370370369,0)" xlink:href="#aR"/><use transform="matrix(0.087037037037037,0,0,0.087037037037037,60.66481481481479,0)" xlink:href="#aQ"/><use transform="matrix(0.087037037037037,0,0,0.087037037037037,69.36851851851848,0)" xlink:href="#aL"/><use transform="matrix(0.087037037037037,0,0,0.087037037037037,78.07222222222218,0)" xlink:href="#aE"/><use transform="matrix(0.087037037037037,0,0,0.087037037037037,95.47962962962958,0)" xlink:href="#au"/><use transform="matrix(0.087037037037037,0,0,0.087037037037037,112.88703703703699,0)" xlink:href="#av"/><use transform="matrix(0.087037037037037,0,0,0.087037037037037,123.24444444444438,0)" xlink:href="#aL"/><use transform="matrix(0.087037037037037,0,0,0.087037037037037,131.94814814814808,0)" xlink:href="#aN"/><use transform="matrix(0.087037037037037,0,0,0.087037037037037,151.00925925925918,0)" xlink:href="#aG"/></g><g id="j"><use transform="matrix(0.087037037037037,0,0,0.087037037037037,0,0)" xlink:href="#aC"/><use transform="matrix(0.087037037037037,0,0,0.087037037037037,10.357407407407402,0)" xlink:href="#aO"/><use transform="matrix(0.087037037037037,0,0,0.087037037037037,32.899999999999984,0)" xlink:href="#aG"/><use transform="matrix(0.087037037037037,0,0,0.087037037037037,51.96111111111109,0)" xlink:href="#aH"/><use transform="matrix(0.087037037037037,0,0,0.087037037037037,71.02222222222218,0)" xlink:href="#aA"/><use transform="matrix(0.087037037037037,0,0,0.087037037037037,83.20740740740736,0)" xlink:href="#aN"/><use transform="matrix(0.087037037037037,0,0,0.087037037037037,102.26851851851848,0)" xlink:href="#aL"/><use transform="matrix(0.087037037037037,0,0,0.087037037037037,110.97222222222214,0)" xlink:href="#aH"/></g><path fill="#3a414a" d="M168-19C124 19 11 11 16-68c3-43 29-60 59-75-25-44-12-111 53-106 37 3 64 15 64 52 0 43-40 52-69 68 12 22 27 41 43 59 14-19 21-38 28-64l37 13c-8 29-19 52-34 74 12 10 32 16 52 10v35c-28 11-65-2-81-17zm-58-139c19-9 43-14 43-39 0-14-10-22-25-22-34 0-33 41-18 61zM60-68c-3 40 55 47 79 25-18-20-34-42-48-67-18 8-30 20-31 42" id="aS"/><use transform="matrix(0.087037037037037,0,0,0.087037037037037,0,0)" xlink:href="#aS" id="k"/><path fill="#3a414a" d="M140-251c80 0 125 45 125 126S219 4 139 4C58 4 15-44 15-125s44-126 125-126zm-1 214c52 0 73-35 73-88 0-50-21-86-72-86-52 0-73 35-73 86s22 88 72 88" id="aT"/><g id="l"><use transform="matrix(0.087037037037037,0,0,0.087037037037037,0,0)" xlink:href="#aL"/><use transform="matrix(0.087037037037037,0,0,0.087037037037037,8.703703703703699,0)" xlink:href="#aT"/><use transform="matrix(0.087037037037037,0,0,0.087037037037037,33.07407407407406,0)" xlink:href="#az"/><use transform="matrix(0.087037037037037,0,0,0.087037037037037,53.96296296296294,0)" xlink:href="#aI"/></g><path fill="#3a414a" d="M232-93c-1 65-40 97-104 97C67 4 28-28 28-90v-158h33c8 89-33 224 67 224 102 0 64-133 71-224h33v155" id="aU"/><path fill="#3a414a" d="M135-143c-3-34-86-38-87 0 15 53 115 12 119 90S17 21 10-45l28-5c4 36 97 45 98 0-10-56-113-15-118-90-4-57 82-63 122-42 12 7 21 19 24 35" id="aV"/><path fill="#3a414a" d="M100-194c63 0 86 42 84 106H49c0 40 14 67 53 68 26 1 43-12 49-29l28 8c-11 28-37 45-77 45C44 4 14-33 15-96c1-61 26-98 85-98zm52 81c6-60-76-77-97-28-3 7-6 17-6 28h103" id="aW"/><path fill="#3a414a" d="M114-163C36-179 61-72 57 0H25l-1-190h30c1 12-1 29 2 39 6-27 23-49 58-41v29" id="aX"/><g id="m"><use transform="matrix(0.049382716049382706,0,0,0.049382716049382706,0,0)" xlink:href="#aU"/><use transform="matrix(0.049382716049382706,0,0,0.049382716049382706,12.790123456790122,0)" xlink:href="#aV"/><use transform="matrix(0.049382716049382706,0,0,0.049382716049382706,21.67901234567901,0)" xlink:href="#aW"/><use transform="matrix(0.049382716049382706,0,0,0.049382716049382706,31.55555555555555,0)" xlink:href="#aX"/><use transform="matrix(0.049382716049382706,0,0,0.049382716049382706,37.432098765432094,0)" xlink:href="#aV"/></g><path fill="#3a414a" d="M63-220v92h138v28H63V0H30v-248h175v28H63" id="aY"/><path fill="#3a414a" d="M141-36C126-15 110 5 73 4 37 3 15-17 15-53c-1-64 63-63 125-63 3-35-9-54-41-54-24 1-41 7-42 31l-33-3c5-37 33-52 76-52 45 0 72 20 72 64v82c-1 20 7 32 28 27v20c-31 9-61-2-59-35zM48-53c0 20 12 33 32 33 41-3 63-29 60-74-43 2-92-5-92 41" id="aZ"/><path fill="#3a414a" d="M210-169c-67 3-38 105-44 169h-31v-121c0-29-5-50-35-48C34-165 62-65 56 0H25l-1-190h30c1 10-1 24 2 32 10-44 99-50 107 0 11-21 27-35 58-36 85-2 47 119 55 194h-31v-121c0-29-5-49-35-48" id="ba"/><g id="n"><use transform="matrix(0.049382716049382706,0,0,0.049382716049382706,0,0)" xlink:href="#aY"/><use transform="matrix(0.049382716049382706,0,0,0.049382716049382706,10.814814814814813,0)" xlink:href="#aZ"/><use transform="matrix(0.049382716049382706,0,0,0.049382716049382706,20.691358024691354,0)" xlink:href="#aX"/><use transform="matrix(0.049382716049382706,0,0,0.049382716049382706,26.567901234567895,0)" xlink:href="#ba"/></g><path fill="#3a414a" d="M30 0v-248h187v28H63v79h144v27H63v87h162V0H30" id="bb"/><path fill="#3a414a" d="M24 0v-261h32V0H24" id="bc"/><path fill="#3a414a" d="M117-194c89-4 53 116 60 194h-32v-121c0-31-8-49-39-48C34-167 62-67 57 0H25l-1-190h30c1 10-1 24 2 32 11-22 29-35 61-36" id="bd"/><path fill="#3a414a" d="M59-47c-2 24 18 29 38 22v24C64 9 27 4 27-40v-127H5v-23h24l9-43h21v43h35v23H59v120" id="be"/><g id="o"><use transform="matrix(0.049382716049382706,0,0,0.049382716049382706,0,0)" xlink:href="#bb"/><use transform="matrix(0.049382716049382706,0,0,0.049382716049382706,11.85185185185185,0)" xlink:href="#bc"/><use transform="matrix(0.049382716049382706,0,0,0.049382716049382706,15.753086419753084,0)" xlink:href="#aW"/><use transform="matrix(0.049382716049382706,0,0,0.049382716049382706,25.629629629629626,0)" xlink:href="#ba"/><use transform="matrix(0.049382716049382706,0,0,0.049382716049382706,40.395061728395056,0)" xlink:href="#aW"/><use transform="matrix(0.049382716049382706,0,0,0.049382716049382706,50.271604938271594,0)" xlink:href="#bd"/><use transform="matrix(0.049382716049382706,0,0,0.049382716049382706,60.14814814814814,0)" xlink:href="#be"/><use transform="matrix(0.049382716049382706,0,0,0.049382716049382706,65.0864197530864,0)" xlink:href="#aV"/></g><path fill="#3a414a" d="M30-248c87 1 191-15 191 75 0 78-77 80-158 76V0H30v-248zm33 125c57 0 124 11 124-50 0-59-68-47-124-48v98" id="bf"/><g id="p"><use transform="matrix(0.049382716049382706,0,0,0.049382716049382706,0,0)" xlink:href="#bf"/><use transform="matrix(0.049382716049382706,0,0,0.049382716049382706,11.85185185185185,0)" xlink:href="#bc"/><use transform="matrix(0.049382716049382706,0,0,0.049382716049382706,15.753086419753084,0)" xlink:href="#aZ"/><use transform="matrix(0.049382716049382706,0,0,0.049382716049382706,25.629629629629626,0)" xlink:href="#bd"/><use transform="matrix(0.049382716049382706,0,0,0.049382716049382706,35.50617283950616,0)" xlink:href="#be"/><use transform="matrix(0.049382716049382706,0,0,0.049382716049382706,40.444444444444436,0)" xlink:href="#aV"/></g><path fill="#3a414a" d="M140-251c81 0 123 46 123 126C263-46 219 4 140 4 59 4 17-45 17-125s42-126 123-126zm0 227c63 0 89-41 89-101s-29-99-89-99c-61 0-89 39-89 99S79-25 140-24" id="bg"/><path fill="#3a414a" d="M115-194c53 0 69 39 70 98 0 66-23 100-70 100C84 3 66-7 56-30L54 0H23l1-261h32v101c10-23 28-34 59-34zm-8 174c40 0 45-34 45-75 0-40-5-75-45-74-42 0-51 32-51 76 0 43 10 73 51 73" id="bh"/><path fill="#3a414a" d="M24-231v-30h32v30H24zM-9 49c24 4 33-6 33-30v-209h32V24c2 40-23 58-65 49V49" id="bi"/><path fill="#3a414a" d="M96-169c-40 0-48 33-48 73s9 75 48 75c24 0 41-14 43-38l32 2c-6 37-31 61-74 61-59 0-76-41-82-99-10-93 101-131 147-64 4 7 5 14 7 22l-32 3c-4-21-16-35-41-35" id="bj"/><g id="q"><use transform="matrix(0.049382716049382706,0,0,0.049382716049382706,0,0)" xlink:href="#bg"/><use transform="matrix(0.049382716049382706,0,0,0.049382716049382706,13.827160493827158,0)" xlink:href="#bh"/><use transform="matrix(0.049382716049382706,0,0,0.049382716049382706,23.7037037037037,0)" xlink:href="#bi"/><use transform="matrix(0.049382716049382706,0,0,0.049382716049382706,27.604938271604933,0)" xlink:href="#aW"/><use transform="matrix(0.049382716049382706,0,0,0.049382716049382706,37.481481481481474,0)" xlink:href="#bj"/><use transform="matrix(0.049382716049382706,0,0,0.049382716049382706,46.37037037037036,0)" xlink:href="#be"/><use transform="matrix(0.049382716049382706,0,0,0.049382716049382706,51.30864197530863,0)" xlink:href="#aV"/></g><path fill="#3a414a" d="M106-169C34-169 62-67 57 0H25v-261h32l-1 103c12-21 28-36 61-36 89 0 53 116 60 194h-32v-121c2-32-8-49-39-48" id="bk"/><g id="r"><use transform="matrix(0.049382716049382706,0,0,0.049382716049382706,0,0)" xlink:href="#bg"/><use transform="matrix(0.049382716049382706,0,0,0.049382716049382706,13.827160493827158,0)" xlink:href="#be"/><use transform="matrix(0.049382716049382706,0,0,0.049382716049382706,18.76543209876543,0)" xlink:href="#bk"/><use transform="matrix(0.049382716049382706,0,0,0.049382716049382706,28.64197530864197,0)" xlink:href="#aW"/><use transform="matrix(0.049382716049382706,0,0,0.049382716049382706,38.51851851851851,0)" xlink:href="#aX"/></g><path fill="#3a414a" d="M212-179c-10-28-35-45-73-45-59 0-87 40-87 99 0 60 29 101 89 101 43 0 62-24 78-52l27 14C228-24 195 4 139 4 59 4 22-46 18-125c-6-104 99-153 187-111 19 9 31 26 39 46" id="bl"/><path fill="#3a414a" d="M100-194c62-1 85 37 85 99 1 63-27 99-86 99S16-35 15-95c0-66 28-99 85-99zM99-20c44 1 53-31 53-75 0-43-8-75-51-75s-53 32-53 75 10 74 51 75" id="bm"/><path fill="#3a414a" d="M115-194c55 1 70 41 70 98S169 2 115 4C84 4 66-9 55-30l1 105H24l-1-265h31l2 30c10-21 28-34 59-34zm-8 174c40 0 45-34 45-75s-6-73-45-74c-42 0-51 32-51 76 0 43 10 73 51 73" id="bn"/><path fill="#3a414a" d="M179-190L93 31C79 59 56 82 12 73V49c39 6 53-20 64-50L1-190h34L92-34l54-156h33" id="bo"/><g id="s"><use transform="matrix(0.049382716049382706,0,0,0.049382716049382706,0,0)" xlink:href="#bl"/><use transform="matrix(0.049382716049382706,0,0,0.049382716049382706,12.790123456790122,0)" xlink:href="#bm"/><use transform="matrix(0.049382716049382706,0,0,0.049382716049382706,22.666666666666664,0)" xlink:href="#ba"/><use transform="matrix(0.049382716049382706,0,0,0.049382716049382706,37.432098765432094,0)" xlink:href="#bn"/><use transform="matrix(0.049382716049382706,0,0,0.049382716049382706,47.30864197530863,0)" xlink:href="#bc"/><use transform="matrix(0.049382716049382706,0,0,0.049382716049382706,51.209876543209866,0)" xlink:href="#aW"/><use transform="matrix(0.049382716049382706,0,0,0.049382716049382706,61.08641975308641,0)" xlink:href="#ba"/><use transform="matrix(0.049382716049382706,0,0,0.049382716049382706,75.85185185185183,0)" xlink:href="#aW"/><use transform="matrix(0.049382716049382706,0,0,0.049382716049382706,85.72839506172838,0)" xlink:href="#bd"/><use transform="matrix(0.049382716049382706,0,0,0.049382716049382706,95.60493827160492,0)" xlink:href="#be"/><use transform="matrix(0.049382716049382706,0,0,0.049382716049382706,100.54320987654319,0)" xlink:href="#aZ"/><use transform="matrix(0.049382716049382706,0,0,0.049382716049382706,110.41975308641973,0)" xlink:href="#aX"/><use transform="matrix(0.049382716049382706,0,0,0.049382716049382706,116.29629629629628,0)" xlink:href="#bo"/></g><path fill="#3a414a" d="M127-220V0H93v-220H8v-28h204v28h-85" id="bp"/><g id="t"><use transform="matrix(0.049382716049382706,0,0,0.049382716049382706,0,0)" xlink:href="#bp"/><use transform="matrix(0.049382716049382706,0,0,0.049382716049382706,8.839506172839505,0)" xlink:href="#aZ"/><use transform="matrix(0.049382716049382706,0,0,0.049382716049382706,18.716049382716044,0)" xlink:href="#bh"/><use transform="matrix(0.049382716049382706,0,0,0.049382716049382706,28.592592592592588,0)" xlink:href="#bc"/><use transform="matrix(0.049382716049382706,0,0,0.049382716049382706,32.493827160493815,0)" xlink:href="#aW"/><use transform="matrix(0.049382716049382706,0,0,0.049382716049382706,42.37037037037035,0)" xlink:href="#aV"/></g><path fill="#fff" d="M205 0l-28-72H64L36 0H1l101-248h38L239 0h-34zm-38-99l-47-123c-12 45-31 82-46 123h93" id="bq"/><path fill="#fff" d="M84 4C-5 8 30-112 23-190h32v120c0 31 7 50 39 49 72-2 45-101 50-169h31l1 190h-30c-1-10 1-25-2-33-11 22-28 36-60 37" id="br"/><path fill="#fff" d="M59-47c-2 24 18 29 38 22v24C64 9 27 4 27-40v-127H5v-23h24l9-43h21v43h35v23H59v120" id="bs"/><path fill="#fff" d="M106-169C34-169 62-67 57 0H25v-261h32l-1 103c12-21 28-36 61-36 89 0 53 116 60 194h-32v-121c2-32-8-49-39-48" id="bt"/><path fill="#fff" d="M100-194c63 0 86 42 84 106H49c0 40 14 67 53 68 26 1 43-12 49-29l28 8c-11 28-37 45-77 45C44 4 14-33 15-96c1-61 26-98 85-98zm52 81c6-60-76-77-97-28-3 7-6 17-6 28h103" id="bu"/><path fill="#fff" d="M117-194c89-4 53 116 60 194h-32v-121c0-31-8-49-39-48C34-167 62-67 57 0H25l-1-190h30c1 10-1 24 2 32 11-22 29-35 61-36" id="bv"/><path fill="#fff" d="M24-231v-30h32v30H24zM24 0v-190h32V0H24" id="bw"/><path fill="#fff" d="M96-169c-40 0-48 33-48 73s9 75 48 75c24 0 41-14 43-38l32 2c-6 37-31 61-74 61-59 0-76-41-82-99-10-93 101-131 147-64 4 7 5 14 7 22l-32 3c-4-21-16-35-41-35" id="bx"/><path fill="#fff" d="M141-36C126-15 110 5 73 4 37 3 15-17 15-53c-1-64 63-63 125-63 3-35-9-54-41-54-24 1-41 7-42 31l-33-3c5-37 33-52 76-52 45 0 72 20 72 64v82c-1 20 7 32 28 27v20c-31 9-61-2-59-35zM48-53c0 20 12 33 32 33 41-3 63-29 60-74-43 2-92-5-92 41" id="by"/><path fill="#fff" d="M100-194c62-1 85 37 85 99 1 63-27 99-86 99S16-35 15-95c0-66 28-99 85-99zM99-20c44 1 53-31 53-75 0-43-8-75-51-75s-53 32-53 75 10 74 51 75" id="bz"/><g id="u"><use transform="matrix(0.049382716049382706,0,0,0.049382716049382706,0,0)" xlink:href="#bq"/><use transform="matrix(0.049382716049382706,0,0,0.049382716049382706,11.85185185185185,0)" xlink:href="#br"/><use transform="matrix(0.049382716049382706,0,0,0.049382716049382706,21.728395061728392,0)" xlink:href="#bs"/><use transform="matrix(0.049382716049382706,0,0,0.049382716049382706,26.666666666666668,0)" xlink:href="#bt"/><use transform="matrix(0.049382716049382706,0,0,0.049382716049382706,36.5432098765432,0)" xlink:href="#bu"/><use transform="matrix(0.049382716049382706,0,0,0.049382716049382706,46.419753086419746,0)" xlink:href="#bv"/><use transform="matrix(0.049382716049382706,0,0,0.049382716049382706,56.29629629629628,0)" xlink:href="#bs"/><use transform="matrix(0.049382716049382706,0,0,0.049382716049382706,61.23456790123457,0)" xlink:href="#bw"/><use transform="matrix(0.049382716049382706,0,0,0.049382716049382706,65.1358024691358,0)" xlink:href="#bx"/><use transform="matrix(0.049382716049382706,0,0,0.049382716049382706,74.02469135802468,0)" xlink:href="#by"/><use transform="matrix(0.049382716049382706,0,0,0.049382716049382706,83.90123456790123,0)" xlink:href="#bs"/><use transform="matrix(0.049382716049382706,0,0,0.049382716049382706,88.83950617283949,0)" xlink:href="#bw"/><use transform="matrix(0.049382716049382706,0,0,0.049382716049382706,92.74074074074072,0)" xlink:href="#bz"/><use transform="matrix(0.049382716049382706,0,0,0.049382716049382706,102.61728395061726,0)" xlink:href="#bv"/></g><path fill="#fff" d="M185-189c-5-48-123-54-124 2 14 75 158 14 163 119 3 78-121 87-175 55-17-10-28-26-33-46l33-7c5 56 141 63 141-1 0-78-155-14-162-118-5-82 145-84 179-34 5 7 8 16 11 25" id="bA"/><path fill="#fff" d="M114-163C36-179 61-72 57 0H25l-1-190h30c1 12-1 29 2 39 6-27 23-49 58-41v29" id="bB"/><path fill="#fff" d="M108 0H70L1-190h34L89-25l56-165h34" id="bC"/><path fill="#fff" d="M135-143c-3-34-86-38-87 0 15 53 115 12 119 90S17 21 10-45l28-5c4 36 97 45 98 0-10-56-113-15-118-90-4-57 82-63 122-42 12 7 21 19 24 35" id="bD"/><g id="v"><use transform="matrix(0.049382716049382706,0,0,0.049382716049382706,0,0)" xlink:href="#bA"/><use transform="matrix(0.049382716049382706,0,0,0.049382716049382706,11.85185185185185,0)" xlink:href="#bu"/><use transform="matrix(0.049382716049382706,0,0,0.049382716049382706,21.728395061728392,0)" xlink:href="#bB"/><use transform="matrix(0.049382716049382706,0,0,0.049382716049382706,27.604938271604933,0)" xlink:href="#bC"/><use transform="matrix(0.049382716049382706,0,0,0.049382716049382706,36.49382716049382,0)" xlink:href="#bw"/><use transform="matrix(0.049382716049382706,0,0,0.049382716049382706,40.395061728395056,0)" xlink:href="#bx"/><use transform="matrix(0.049382716049382706,0,0,0.049382716049382706,49.28395061728394,0)" xlink:href="#bu"/><use transform="matrix(0.049382716049382706,0,0,0.049382716049382706,59.16049382716048,0)" xlink:href="#bD"/></g><path fill="#fff" d="M212-179c-10-28-35-45-73-45-59 0-87 40-87 99 0 60 29 101 89 101 43 0 62-24 78-52l27 14C228-24 195 4 139 4 59 4 22-46 18-125c-6-104 99-153 187-111 19 9 31 26 39 46" id="bE"/><path fill="#fff" d="M24 0v-261h32V0H24" id="bF"/><g id="w"><use transform="matrix(0.049382716049382706,0,0,0.049382716049382706,0,0)" xlink:href="#bE"/><use transform="matrix(0.049382716049382706,0,0,0.049382716049382706,12.790123456790122,0)" xlink:href="#bz"/><use transform="matrix(0.049382716049382706,0,0,0.049382716049382706,22.666666666666664,0)" xlink:href="#bv"/><use transform="matrix(0.049382716049382706,0,0,0.049382716049382706,32.5432098765432,0)" xlink:href="#bs"/><use transform="matrix(0.049382716049382706,0,0,0.049382716049382706,37.481481481481474,0)" xlink:href="#bB"/><use transform="matrix(0.049382716049382706,0,0,0.049382716049382706,43.35802469135802,0)" xlink:href="#bz"/><use transform="matrix(0.049382716049382706,0,0,0.049382716049382706,53.234567901234556,0)" xlink:href="#bF"/><use transform="matrix(0.049382716049382706,0,0,0.049382716049382706,57.13580246913579,0)" xlink:href="#bF"/><use transform="matrix(0.049382716049382706,0,0,0.049382716049382706,61.037037037037024,0)" xlink:href="#bu"/><use transform="matrix(0.049382716049382706,0,0,0.049382716049382706,70.91358024691357,0)" xlink:href="#bB"/><use transform="matrix(0.049382716049382706,0,0,0.049382716049382706,76.79012345679011,0)" xlink:href="#bD"/></g><path fill="#fff" d="M233-177c-1 41-23 64-60 70L243 0h-38l-65-103H63V0H30v-248c88 3 205-21 203 71zM63-129c60-2 137 13 137-47 0-61-80-42-137-45v92" id="bG"/><g id="x"><use transform="matrix(0.049382716049382706,0,0,0.049382716049382706,0,0)" xlink:href="#bG"/><use transform="matrix(0.049382716049382706,0,0,0.049382716049382706,12.790123456790122,0)" xlink:href="#bz"/><use transform="matrix(0.049382716049382706,0,0,0.049382716049382706,22.666666666666664,0)" xlink:href="#br"/><use transform="matrix(0.049382716049382706,0,0,0.049382716049382706,32.5432098765432,0)" xlink:href="#bs"/><use transform="matrix(0.049382716049382706,0,0,0.049382716049382706,37.481481481481474,0)" xlink:href="#bu"/><use transform="matrix(0.049382716049382706,0,0,0.049382716049382706,47.35802469135801,0)" xlink:href="#bD"/></g><path fill="#fff" d="M87 75C49 33 22-17 22-94c0-76 28-126 65-167h31c-38 41-64 92-64 168S80 34 118 75H87" id="bH"/><path fill="#fff" d="M30 0v-248h187v28H63v79h144v27H63v87h162V0H30" id="bI"/><path fill="#fff" d="M85-194c31 0 48 13 60 33l-1-100h32l1 261h-30c-2-10 0-23-3-31C134-8 116 4 85 4 32 4 16-35 15-94c0-66 23-100 70-100zm9 24c-40 0-46 34-46 75 0 40 6 74 45 74 42 0 51-32 51-76 0-42-9-74-50-73" id="bJ"/><path fill="#fff" d="M115-194c55 1 70 41 70 98S169 2 115 4C84 4 66-9 55-30l1 105H24l-1-265h31l2 30c10-21 28-34 59-34zm-8 174c40 0 45-34 45-75s-6-73-45-74c-42 0-51 32-51 76 0 43 10 73 51 73" id="bK"/><path fill="#fff" d="M33-261c38 41 65 92 65 168S71 34 33 75H2C39 34 66-17 66-93S39-220 2-261h31" id="bL"/><g id="y"><use transform="matrix(0.049382716049382706,0,0,0.049382716049382706,0,0)" xlink:href="#bH"/><use transform="matrix(0.049382716049382706,0,0,0.049382716049382706,5.876543209876542,0)" xlink:href="#bI"/><use transform="matrix(0.049382716049382706,0,0,0.049382716049382706,17.728395061728392,0)" xlink:href="#bv"/><use transform="matrix(0.049382716049382706,0,0,0.049382716049382706,27.604938271604933,0)" xlink:href="#bJ"/><use transform="matrix(0.049382716049382706,0,0,0.049382716049382706,37.481481481481474,0)" xlink:href="#bK"/><use transform="matrix(0.049382716049382706,0,0,0.049382716049382706,47.35802469135801,0)" xlink:href="#bz"/><use transform="matrix(0.049382716049382706,0,0,0.049382716049382706,57.234567901234556,0)" xlink:href="#bw"/><use transform="matrix(0.049382716049382706,0,0,0.049382716049382706,61.13580246913579,0)" xlink:href="#bv"/><use transform="matrix(0.049382716049382706,0,0,0.049382716049382706,71.01234567901233,0)" xlink:href="#bs"/><use transform="matrix(0.049382716049382706,0,0,0.049382716049382706,75.95061728395059,0)" xlink:href="#bD"/><use transform="matrix(0.049382716049382706,0,0,0.049382716049382706,84.83950617283948,0)" xlink:href="#bL"/></g><g id="z"><use transform="matrix(0.049382716049382706,0,0,0.049382716049382706,0,0)" xlink:href="#bI"/><use transform="matrix(0.049382716049382706,0,0,0.049382716049382706,11.85185185185185,0)" xlink:href="#bB"/><use transform="matrix(0.049382716049382706,0,0,0.049382716049382706,17.728395061728392,0)" xlink:href="#bB"/><use transform="matrix(0.049382716049382706,0,0,0.049382716049382706,23.604938271604933,0)" xlink:href="#bz"/><use transform="matrix(0.049382716049382706,0,0,0.049382716049382706,33.481481481481474,0)" xlink:href="#bB"/></g><path fill="#fff" d="M197 0v-115H63V0H30v-248h33v105h134v-105h34V0h-34" id="bM"/><path fill="#fff" d="M177-190C167-65 218 103 67 71c-23-6-38-20-44-43l32-5c15 47 100 32 89-28v-30C133-14 115 1 83 1 29 1 15-40 15-95c0-56 16-97 71-98 29-1 48 16 59 35 1-10 0-23 2-32h30zM94-22c36 0 50-32 50-73 0-42-14-75-50-75-39 0-46 34-46 75s6 73 46 73" id="bN"/><g id="A"><use transform="matrix(0.049382716049382706,0,0,0.049382716049382706,0,0)" xlink:href="#bM"/><use transform="matrix(0.049382716049382706,0,0,0.049382716049382706,12.790123456790122,0)" xlink:href="#by"/><use transform="matrix(0.049382716049382706,0,0,0.049382716049382706,22.666666666666664,0)" xlink:href="#bv"/><use transform="matrix(0.049382716049382706,0,0,0.049382716049382706,32.5432098765432,0)" xlink:href="#bJ"/><use transform="matrix(0.049382716049382706,0,0,0.049382716049382706,42.419753086419746,0)" xlink:href="#bF"/><use transform="matrix(0.049382716049382706,0,0,0.049382716049382706,46.32098765432098,0)" xlink:href="#bw"/><use transform="matrix(0.049382716049382706,0,0,0.049382716049382706,50.222222222222214,0)" xlink:href="#bv"/><use transform="matrix(0.049382716049382706,0,0,0.049382716049382706,60.09876543209875,0)" xlink:href="#bN"/></g><path fill="#fff" d="M234-2c-28 10-62 0-77-18C117 19 8 12 13-65c3-43 29-61 60-76-25-40-17-114 47-108 35 3 59 15 59 50 0 44-40 53-71 69 14 26 32 50 51 72 14-21 24-43 30-72l26 8c-9 33-21 57-38 82 13 13 33 22 57 15v23zM97-151c25-10 52-18 56-48-1-18-13-29-33-29-42 0-39 50-23 77zM42-66c-3 51 71 58 98 28-20-24-41-51-56-80-23 10-40 24-42 52" id="bO"/><use transform="matrix(0.049382716049382706,0,0,0.049382716049382706,0,0)" xlink:href="#bO" id="B"/><path fill="#fff" d="M30 0v-248h33v221h125V0H30" id="bP"/><g id="C"><use transform="matrix(0.049382716049382706,0,0,0.049382716049382706,0,0)" xlink:href="#bP"/><use transform="matrix(0.049382716049382706,0,0,0.049382716049382706,9.87654320987654,0)" xlink:href="#bz"/><use transform="matrix(0.049382716049382706,0,0,0.049382716049382706,19.75308641975308,0)" xlink:href="#bN"/><use transform="matrix(0.049382716049382706,0,0,0.049382716049382706,29.629629629629623,0)" xlink:href="#bN"/><use transform="matrix(0.049382716049382706,0,0,0.049382716049382706,39.50617283950616,0)" xlink:href="#bw"/><use transform="matrix(0.049382716049382706,0,0,0.049382716049382706,43.4074074074074,0)" xlink:href="#bv"/><use transform="matrix(0.049382716049382706,0,0,0.049382716049382706,53.28395061728394,0)" xlink:href="#bN"/></g><path fill="#fff" d="M179-190L93 31C79 59 56 82 12 73V49c39 6 53-20 64-50L1-190h34L92-34l54-156h33" id="bQ"/><g id="D"><use transform="matrix(0.049382716049382706,0,0,0.049382716049382706,0,0)" xlink:href="#bA"/><use transform="matrix(0.049382716049382706,0,0,0.049382716049382706,11.85185185185185,0)" xlink:href="#bu"/><use transform="matrix(0.049382716049382706,0,0,0.049382716049382706,21.728395061728392,0)" xlink:href="#bx"/><use transform="matrix(0.049382716049382706,0,0,0.049382716049382706,30.617283950617278,0)" xlink:href="#br"/><use transform="matrix(0.049382716049382706,0,0,0.049382716049382706,40.49382716049382,0)" xlink:href="#bB"/><use transform="matrix(0.049382716049382706,0,0,0.049382716049382706,46.37037037037037,0)" xlink:href="#bw"/><use transform="matrix(0.049382716049382706,0,0,0.049382716049382706,50.2716049382716,0)" xlink:href="#bs"/><use transform="matrix(0.049382716049382706,0,0,0.049382716049382706,55.20987654320988,0)" xlink:href="#bQ"/></g><g id="E"><use transform="matrix(0.049382716049382706,0,0,0.049382716049382706,0,0)" xlink:href="#bP"/><use transform="matrix(0.049382716049382706,0,0,0.049382716049382706,9.87654320987654,0)" xlink:href="#bu"/><use transform="matrix(0.049382716049382706,0,0,0.049382716049382706,19.75308641975308,0)" xlink:href="#bC"/><use transform="matrix(0.049382716049382706,0,0,0.049382716049382706,28.64197530864197,0)" xlink:href="#bu"/><use transform="matrix(0.049382716049382706,0,0,0.049382716049382706,38.518518518518505,0)" xlink:href="#bF"/></g><g id="F"><use transform="matrix(0.049382716049382706,0,0,0.049382716049382706,0,0)" xlink:href="#bP"/><use transform="matrix(0.049382716049382706,0,0,0.049382716049382706,9.87654320987654,0)" xlink:href="#bz"/><use transform="matrix(0.049382716049382706,0,0,0.049382716049382706,19.75308641975308,0)" xlink:href="#by"/><use transform="matrix(0.049382716049382706,0,0,0.049382716049382706,29.629629629629623,0)" xlink:href="#bJ"/></g><path fill="#fff" d="M160-131c35 5 61 23 61 61C221 17 115-2 30 0v-248c76 3 177-17 177 60 0 33-19 50-47 57zm-97-11c50-1 110 9 110-42 0-47-63-36-110-37v79zm0 115c55-2 124 14 124-45 0-56-70-42-124-44v89" id="bR"/><g id="G"><use transform="matrix(0.049382716049382706,0,0,0.049382716049382706,0,0)" xlink:href="#bR"/><use transform="matrix(0.049382716049382706,0,0,0.049382716049382706,11.85185185185185,0)" xlink:href="#by"/><use transform="matrix(0.049382716049382706,0,0,0.049382716049382706,21.728395061728392,0)" xlink:href="#bF"/><use transform="matrix(0.049382716049382706,0,0,0.049382716049382706,25.629629629629626,0)" xlink:href="#by"/><use transform="matrix(0.049382716049382706,0,0,0.049382716049382706,35.50617283950616,0)" xlink:href="#bv"/><use transform="matrix(0.049382716049382706,0,0,0.049382716049382706,45.38271604938271,0)" xlink:href="#bx"/><use transform="matrix(0.049382716049382706,0,0,0.049382716049382706,54.271604938271594,0)" xlink:href="#bw"/><use transform="matrix(0.049382716049382706,0,0,0.049382716049382706,58.17283950617283,0)" xlink:href="#bv"/><use transform="matrix(0.049382716049382706,0,0,0.049382716049382706,68.04938271604937,0)" xlink:href="#bN"/></g><path d="M30-248c87 1 191-15 191 75 0 78-77 80-158 76V0H30v-248zm33 125c57 0 124 11 124-50 0-59-68-47-124-48v98" id="bS"/><path d="M114-163C36-179 61-72 57 0H25l-1-190h30c1 12-1 29 2 39 6-27 23-49 58-41v29" id="bT"/><path d="M100-194c62-1 85 37 85 99 1 63-27 99-86 99S16-35 15-95c0-66 28-99 85-99zM99-20c44 1 53-31 53-75 0-43-8-75-51-75s-53 32-53 75 10 74 51 75" id="bU"/><path d="M108 0H70L1-190h34L89-25l56-165h34" id="bV"/><path d="M24-231v-30h32v30H24zM24 0v-190h32V0H24" id="bW"/><path d="M85-194c31 0 48 13 60 33l-1-100h32l1 261h-30c-2-10 0-23-3-31C134-8 116 4 85 4 32 4 16-35 15-94c0-66 23-100 70-100zm9 24c-40 0-46 34-46 75 0 40 6 74 45 74 42 0 51-32 51-76 0-42-9-74-50-73" id="bX"/><path d="M117-194c89-4 53 116 60 194h-32v-121c0-31-8-49-39-48C34-167 62-67 57 0H25l-1-190h30c1 10-1 24 2 32 11-22 29-35 61-36" id="bY"/><path d="M177-190C167-65 218 103 67 71c-23-6-38-20-44-43l32-5c15 47 100 32 89-28v-30C133-14 115 1 83 1 29 1 15-40 15-95c0-56 16-97 71-98 29-1 48 16 59 35 1-10 0-23 2-32h30zM94-22c36 0 50-32 50-73 0-42-14-75-50-75-39 0-46 34-46 75s6 73 46 73" id="bZ"/><g id="H"><use transform="matrix(0.05,0,0,0.05,0,0)" xlink:href="#bS"/><use transform="matrix(0.05,0,0,0.05,12,0)" xlink:href="#bT"/><use transform="matrix(0.05,0,0,0.05,17.95,0)" xlink:href="#bU"/><use transform="matrix(0.05,0,0,0.05,27.950000000000003,0)" xlink:href="#bV"/><use transform="matrix(0.05,0,0,0.05,36.95,0)" xlink:href="#bW"/><use transform="matrix(0.05,0,0,0.05,40.900000000000006,0)" xlink:href="#bX"/><use transform="matrix(0.05,0,0,0.05,50.900000000000006,0)" xlink:href="#bW"/><use transform="matrix(0.05,0,0,0.05,54.85,0)" xlink:href="#bY"/><use transform="matrix(0.05,0,0,0.05,64.85000000000001,0)" xlink:href="#bZ"/></g><path d="M30-248c118-7 216 8 213 122C240-48 200 0 122 0H30v-248zM63-27c89 8 146-16 146-99s-60-101-146-95v194" id="ca"/><path d="M141-36C126-15 110 5 73 4 37 3 15-17 15-53c-1-64 63-63 125-63 3-35-9-54-41-54-24 1-41 7-42 31l-33-3c5-37 33-52 76-52 45 0 72 20 72 64v82c-1 20 7 32 28 27v20c-31 9-61-2-59-35zM48-53c0 20 12 33 32 33 41-3 63-29 60-74-43 2-92-5-92 41" id="cb"/><path d="M59-47c-2 24 18 29 38 22v24C64 9 27 4 27-40v-127H5v-23h24l9-43h21v43h35v23H59v120" id="cc"/><g id="I"><use transform="matrix(0.05,0,0,0.05,0,0)" xlink:href="#ca"/><use transform="matrix(0.05,0,0,0.05,12.950000000000001,0)" xlink:href="#cb"/><use transform="matrix(0.05,0,0,0.05,22.950000000000003,0)" xlink:href="#cc"/><use transform="matrix(0.05,0,0,0.05,27.950000000000003,0)" xlink:href="#cb"/></g><path d="M233-177c-1 41-23 64-60 70L243 0h-38l-65-103H63V0H30v-248c88 3 205-21 203 71zM63-129c60-2 137 13 137-47 0-61-80-42-137-45v92" id="cd"/><path d="M100-194c63 0 86 42 84 106H49c0 40 14 67 53 68 26 1 43-12 49-29l28 8c-11 28-37 45-77 45C44 4 14-33 15-96c1-61 26-98 85-98zm52 81c6-60-76-77-97-28-3 7-6 17-6 28h103" id="ce"/><path d="M145-31C134-9 116 4 85 4 32 4 16-35 15-94c0-59 17-99 70-100 32-1 48 14 60 33 0-11-1-24 2-32h30l-1 268h-32zM93-21c41 0 51-33 51-76s-8-73-50-73c-40 0-46 35-46 75s5 74 45 74" id="cf"/><path d="M84 4C-5 8 30-112 23-190h32v120c0 31 7 50 39 49 72-2 45-101 50-169h31l1 190h-30c-1-10 1-25-2-33-11 22-28 36-60 37" id="cg"/><path d="M135-143c-3-34-86-38-87 0 15 53 115 12 119 90S17 21 10-45l28-5c4 36 97 45 98 0-10-56-113-15-118-90-4-57 82-63 122-42 12 7 21 19 24 35" id="ch"/><g id="J"><use transform="matrix(0.05,0,0,0.05,0,0)" xlink:href="#cd"/><use transform="matrix(0.05,0,0,0.05,12.950000000000001,0)" xlink:href="#ce"/><use transform="matrix(0.05,0,0,0.05,22.950000000000003,0)" xlink:href="#cf"/><use transform="matrix(0.05,0,0,0.05,32.95,0)" xlink:href="#cg"/><use transform="matrix(0.05,0,0,0.05,42.95,0)" xlink:href="#ce"/><use transform="matrix(0.05,0,0,0.05,52.95,0)" xlink:href="#ch"/><use transform="matrix(0.05,0,0,0.05,61.95,0)" xlink:href="#cc"/><use transform="matrix(0.05,0,0,0.05,66.95,0)" xlink:href="#bW"/><use transform="matrix(0.05,0,0,0.05,70.9,0)" xlink:href="#bY"/><use transform="matrix(0.05,0,0,0.05,80.9,0)" xlink:href="#bZ"/></g><path fill="#3a414a" d="M205 0l-28-72H64L36 0H1l101-248h38L239 0h-34zm-38-99l-47-123c-12 45-31 82-46 123h93" id="ci"/><path fill="#3a414a" d="M84 4C-5 8 30-112 23-190h32v120c0 31 7 50 39 49 72-2 45-101 50-169h31l1 190h-30c-1-10 1-25-2-33-11 22-28 36-60 37" id="cj"/><path fill="#3a414a" d="M24-231v-30h32v30H24zM24 0v-190h32V0H24" id="ck"/><g id="K"><use transform="matrix(0.049382716049382706,0,0,0.049382716049382706,0,0)" xlink:href="#ci"/><use transform="matrix(0.049382716049382706,0,0,0.049382716049382706,11.85185185185185,0)" xlink:href="#cj"/><use transform="matrix(0.049382716049382706,0,0,0.049382716049382706,21.728395061728392,0)" xlink:href="#be"/><use transform="matrix(0.049382716049382706,0,0,0.049382716049382706,26.666666666666668,0)" xlink:href="#bk"/><use transform="matrix(0.049382716049382706,0,0,0.049382716049382706,36.5432098765432,0)" xlink:href="#aW"/><use transform="matrix(0.049382716049382706,0,0,0.049382716049382706,46.419753086419746,0)" xlink:href="#bd"/><use transform="matrix(0.049382716049382706,0,0,0.049382716049382706,56.29629629629628,0)" xlink:href="#be"/><use transform="matrix(0.049382716049382706,0,0,0.049382716049382706,61.23456790123457,0)" xlink:href="#ck"/><use transform="matrix(0.049382716049382706,0,0,0.049382716049382706,65.1358024691358,0)" xlink:href="#bj"/><use transform="matrix(0.049382716049382706,0,0,0.049382716049382706,74.02469135802468,0)" xlink:href="#aZ"/><use transform="matrix(0.049382716049382706,0,0,0.049382716049382706,83.90123456790123,0)" xlink:href="#be"/><use transform="matrix(0.049382716049382706,0,0,0.049382716049382706,88.83950617283949,0)" xlink:href="#ck"/><use transform="matrix(0.049382716049382706,0,0,0.049382716049382706,92.74074074074072,0)" xlink:href="#bm"/><use transform="matrix(0.049382716049382706,0,0,0.049382716049382706,102.61728395061726,0)" xlink:href="#bd"/></g><path fill="#3a414a" d="M108 0H70L1-190h34L89-25l56-165h34" id="cl"/><path fill="#3a414a" d="M85-194c31 0 48 13 60 33l-1-100h32l1 261h-30c-2-10 0-23-3-31C134-8 116 4 85 4 32 4 16-35 15-94c0-66 23-100 70-100zm9 24c-40 0-46 34-46 75 0 40 6 74 45 74 42 0 51-32 51-76 0-42-9-74-50-73" id="cm"/><g id="L"><use transform="matrix(0.049382716049382706,0,0,0.049382716049382706,0,0)" xlink:href="#bf"/><use transform="matrix(0.049382716049382706,0,0,0.049382716049382706,11.85185185185185,0)" xlink:href="#aX"/><use transform="matrix(0.049382716049382706,0,0,0.049382716049382706,17.728395061728392,0)" xlink:href="#bm"/><use transform="matrix(0.049382716049382706,0,0,0.049382716049382706,27.604938271604933,0)" xlink:href="#cl"/><use transform="matrix(0.049382716049382706,0,0,0.049382716049382706,36.49382716049382,0)" xlink:href="#ck"/><use transform="matrix(0.049382716049382706,0,0,0.049382716049382706,40.395061728395056,0)" xlink:href="#cm"/><use transform="matrix(0.049382716049382706,0,0,0.049382716049382706,50.271604938271594,0)" xlink:href="#aW"/><use transform="matrix(0.049382716049382706,0,0,0.049382716049382706,60.14814814814814,0)" xlink:href="#aX"/><use transform="matrix(0.049382716049382706,0,0,0.049382716049382706,66.02469135802468,0)" xlink:href="#aV"/></g><path fill="#3a414a" d="M266 0h-40l-56-210L115 0H75L2-248h35L96-30l15-64 43-154h32l59 218 59-218h35" id="cn"/><g id="M"><use transform="matrix(0.049382716049382706,0,0,0.049382716049382706,0,0)" xlink:href="#cn"/><use transform="matrix(0.049382716049382706,0,0,0.049382716049382706,16.395061728395056,0)" xlink:href="#aW"/><use transform="matrix(0.049382716049382706,0,0,0.049382716049382706,26.2716049382716,0)" xlink:href="#aZ"/><use transform="matrix(0.049382716049382706,0,0,0.049382716049382706,36.14814814814814,0)" xlink:href="#be"/><use transform="matrix(0.049382716049382706,0,0,0.049382716049382706,41.08641975308641,0)" xlink:href="#bk"/><use transform="matrix(0.049382716049382706,0,0,0.049382716049382706,50.962962962962955,0)" xlink:href="#aW"/><use transform="matrix(0.049382716049382706,0,0,0.049382716049382706,60.83950617283949,0)" xlink:href="#aX"/></g><path fill="#3a414a" d="M33 0v-248h34V0H33" id="co"/><g id="N"><use transform="matrix(0.049382716049382706,0,0,0.049382716049382706,0,0)" xlink:href="#ci"/><use transform="matrix(0.049382716049382706,0,0,0.049382716049382706,11.85185185185185,0)" xlink:href="#bf"/><use transform="matrix(0.049382716049382706,0,0,0.049382716049382706,23.7037037037037,0)" xlink:href="#co"/></g><path fill="#3a414a" d="M30 0v-248h33v221h125V0H30" id="cp"/><path fill="#3a414a" d="M177-190C167-65 218 103 67 71c-23-6-38-20-44-43l32-5c15 47 100 32 89-28v-30C133-14 115 1 83 1 29 1 15-40 15-95c0-56 16-97 71-98 29-1 48 16 59 35 1-10 0-23 2-32h30zM94-22c36 0 50-32 50-73 0-42-14-75-50-75-39 0-46 34-46 75s6 73 46 73" id="cq"/><g id="O"><use transform="matrix(0.049382716049382706,0,0,0.049382716049382706,0,0)" xlink:href="#cp"/><use transform="matrix(0.049382716049382706,0,0,0.049382716049382706,9.87654320987654,0)" xlink:href="#bm"/><use transform="matrix(0.049382716049382706,0,0,0.049382716049382706,19.75308641975308,0)" xlink:href="#cq"/><use transform="matrix(0.049382716049382706,0,0,0.049382716049382706,29.629629629629623,0)" xlink:href="#cq"/><use transform="matrix(0.049382716049382706,0,0,0.049382716049382706,39.50617283950616,0)" xlink:href="#ck"/><use transform="matrix(0.049382716049382706,0,0,0.049382716049382706,43.4074074074074,0)" xlink:href="#bd"/><use transform="matrix(0.049382716049382706,0,0,0.049382716049382706,53.28395061728394,0)" xlink:href="#cq"/></g><path fill="#3a414a" d="M197 0v-115H63V0H30v-248h33v105h134v-105h34V0h-34" id="cr"/><g id="P"><use transform="matrix(0.049382716049382706,0,0,0.049382716049382706,0,0)" xlink:href="#cr"/><use transform="matrix(0.049382716049382706,0,0,0.049382716049382706,12.790123456790122,0)" xlink:href="#aZ"/><use transform="matrix(0.049382716049382706,0,0,0.049382716049382706,22.666666666666664,0)" xlink:href="#bd"/><use transform="matrix(0.049382716049382706,0,0,0.049382716049382706,32.5432098765432,0)" xlink:href="#cm"/><use transform="matrix(0.049382716049382706,0,0,0.049382716049382706,42.419753086419746,0)" xlink:href="#bc"/><use transform="matrix(0.049382716049382706,0,0,0.049382716049382706,46.32098765432098,0)" xlink:href="#aW"/><use transform="matrix(0.049382716049382706,0,0,0.049382716049382706,56.19753086419752,0)" xlink:href="#aX"/></g><g id="Q"><use transform="matrix(0.049382716049382706,0,0,0.049382716049382706,0,0)" xlink:href="#bf"/><use transform="matrix(0.049382716049382706,0,0,0.049382716049382706,11.85185185185185,0)" xlink:href="#aX"/><use transform="matrix(0.049382716049382706,0,0,0.049382716049382706,17.728395061728392,0)" xlink:href="#bm"/><use transform="matrix(0.049382716049382706,0,0,0.049382716049382706,27.604938271604933,0)" xlink:href="#cl"/><use transform="matrix(0.049382716049382706,0,0,0.049382716049382706,36.49382716049382,0)" xlink:href="#ck"/><use transform="matrix(0.049382716049382706,0,0,0.049382716049382706,40.395061728395056,0)" xlink:href="#cm"/><use transform="matrix(0.049382716049382706,0,0,0.049382716049382706,50.271604938271594,0)" xlink:href="#aW"/><use transform="matrix(0.049382716049382706,0,0,0.049382716049382706,60.14814814814814,0)" xlink:href="#aX"/></g><path fill="#3a414a" d="M143 4C61 4 22-44 18-125c-5-107 100-154 193-111 17 8 29 25 37 43l-32 9c-13-25-37-40-76-40-61 0-88 39-88 99 0 61 29 100 91 101 35 0 62-11 79-27v-45h-74v-28h105v86C228-13 192 4 143 4" id="cs"/><g id="R"><use transform="matrix(0.049382716049382706,0,0,0.049382716049382706,0,0)" xlink:href="#cs"/><use transform="matrix(0.049382716049382706,0,0,0.049382716049382706,13.827160493827158,0)" xlink:href="#aW"/><use transform="matrix(0.049382716049382706,0,0,0.049382716049382706,23.7037037037037,0)" xlink:href="#bm"/><use transform="matrix(0.049382716049382706,0,0,0.049382716049382706,33.58024691358024,0)" xlink:href="#bc"/><use transform="matrix(0.049382716049382706,0,0,0.049382716049382706,37.481481481481474,0)" xlink:href="#bm"/><use transform="matrix(0.049382716049382706,0,0,0.049382716049382706,47.35802469135801,0)" xlink:href="#bj"/><use transform="matrix(0.049382716049382706,0,0,0.049382716049382706,56.24691358024689,0)" xlink:href="#aZ"/><use transform="matrix(0.049382716049382706,0,0,0.049382716049382706,66.12345679012344,0)" xlink:href="#be"/><use transform="matrix(0.049382716049382706,0,0,0.049382716049382706,71.0617283950617,0)" xlink:href="#ck"/><use transform="matrix(0.049382716049382706,0,0,0.049382716049382706,74.96296296296293,0)" xlink:href="#bm"/><use transform="matrix(0.049382716049382706,0,0,0.049382716049382706,84.83950617283948,0)" xlink:href="#bd"/></g><path fill="#3a414a" d="M185-189c-5-48-123-54-124 2 14 75 158 14 163 119 3 78-121 87-175 55-17-10-28-26-33-46l33-7c5 56 141 63 141-1 0-78-155-14-162-118-5-82 145-84 179-34 5 7 8 16 11 25" id="ct"/><g id="S"><use transform="matrix(0.049382716049382706,0,0,0.049382716049382706,0,0)" xlink:href="#ct"/><use transform="matrix(0.049382716049382706,0,0,0.049382716049382706,11.85185185185185,0)" xlink:href="#aW"/><use transform="matrix(0.049382716049382706,0,0,0.049382716049382706,21.728395061728392,0)" xlink:href="#aX"/><use transform="matrix(0.049382716049382706,0,0,0.049382716049382706,27.604938271604933,0)" xlink:href="#cl"/><use transform="matrix(0.049382716049382706,0,0,0.049382716049382706,36.49382716049382,0)" xlink:href="#ck"/><use transform="matrix(0.049382716049382706,0,0,0.049382716049382706,40.395061728395056,0)" xlink:href="#bj"/><use transform="matrix(0.049382716049382706,0,0,0.049382716049382706,49.28395061728394,0)" xlink:href="#aW"/><use transform="matrix(0.049382716049382706,0,0,0.049382716049382706,59.16049382716048,0)" xlink:href="#aV"/></g><path fill="#3a414a" d="M160-131c35 5 61 23 61 61C221 17 115-2 30 0v-248c76 3 177-17 177 60 0 33-19 50-47 57zm-97-11c50-1 110 9 110-42 0-47-63-36-110-37v79zm0 115c55-2 124 14 124-45 0-56-70-42-124-44v89" id="cu"/><path fill="#3a414a" d="M143 0L79-87 56-68V0H24v-261h32v163l83-92h37l-77 82L181 0h-38" id="cv"/><g id="T"><use transform="matrix(0.049382716049382706,0,0,0.049382716049382706,0,0)" xlink:href="#cu"/><use transform="matrix(0.049382716049382706,0,0,0.049382716049382706,11.85185185185185,0)" xlink:href="#aZ"/><use transform="matrix(0.049382716049382706,0,0,0.049382716049382706,21.728395061728392,0)" xlink:href="#bj"/><use transform="matrix(0.049382716049382706,0,0,0.049382716049382706,30.617283950617278,0)" xlink:href="#cv"/><use transform="matrix(0.049382716049382706,0,0,0.049382716049382706,39.50617283950616,0)" xlink:href="#aW"/><use transform="matrix(0.049382716049382706,0,0,0.049382716049382706,49.38271604938271,0)" xlink:href="#bd"/><use transform="matrix(0.049382716049382706,0,0,0.049382716049382706,59.259259259259245,0)" xlink:href="#cm"/></g><g id="U"><use transform="matrix(0.049382716049382706,0,0,0.049382716049382706,0,0)" xlink:href="#co"/><use transform="matrix(0.049382716049382706,0,0,0.049382716049382706,4.93827160493827,0)" xlink:href="#bd"/><use transform="matrix(0.049382716049382706,0,0,0.049382716049382706,14.814814814814811,0)" xlink:href="#be"/><use transform="matrix(0.049382716049382706,0,0,0.049382716049382706,19.75308641975308,0)" xlink:href="#aW"/><use transform="matrix(0.049382716049382706,0,0,0.049382716049382706,29.629629629629623,0)" xlink:href="#cq"/><use transform="matrix(0.049382716049382706,0,0,0.049382716049382706,39.50617283950616,0)" xlink:href="#aX"/><use transform="matrix(0.049382716049382706,0,0,0.049382716049382706,45.38271604938271,0)" xlink:href="#aZ"/><use transform="matrix(0.049382716049382706,0,0,0.049382716049382706,55.259259259259245,0)" xlink:href="#be"/><use transform="matrix(0.049382716049382706,0,0,0.049382716049382706,60.19753086419752,0)" xlink:href="#ck"/><use transform="matrix(0.049382716049382706,0,0,0.049382716049382706,64.09876543209876,0)" xlink:href="#bm"/><use transform="matrix(0.049382716049382706,0,0,0.049382716049382706,73.9753086419753,0)" xlink:href="#bd"/><use transform="matrix(0.049382716049382706,0,0,0.049382716049382706,83.85185185185185,0)" xlink:href="#aV"/></g><path fill="#fff" d="M210-169c-67 3-38 105-44 169h-31v-121c0-29-5-50-35-48C34-165 62-65 56 0H25l-1-190h30c1 10-1 24 2 32 10-44 99-50 107 0 11-21 27-35 58-36 85-2 47 119 55 194h-31v-121c0-29-5-49-35-48" id="cw"/><g id="V"><use transform="matrix(0.049382716049382706,0,0,0.049382716049382706,0,0)" xlink:href="#bA"/><use transform="matrix(0.049382716049382706,0,0,0.049382716049382706,11.85185185185185,0)" xlink:href="#bQ"/><use transform="matrix(0.049382716049382706,0,0,0.049382716049382706,20.740740740740737,0)" xlink:href="#bD"/><use transform="matrix(0.049382716049382706,0,0,0.049382716049382706,29.629629629629623,0)" xlink:href="#bs"/><use transform="matrix(0.049382716049382706,0,0,0.049382716049382706,34.5679012345679,0)" xlink:href="#bu"/><use transform="matrix(0.049382716049382706,0,0,0.049382716049382706,44.44444444444444,0)" xlink:href="#cw"/></g><path fill="#fff" d="M240 0l2-218c-23 76-54 145-80 218h-23L58-218 59 0H30v-248h44l77 211c21-75 51-140 76-211h43V0h-30" id="cx"/><g id="W"><use transform="matrix(0.049382716049382706,0,0,0.049382716049382706,0,0)" xlink:href="#cx"/><use transform="matrix(0.049382716049382706,0,0,0.049382716049382706,14.765432098765428,0)" xlink:href="#bz"/><use transform="matrix(0.049382716049382706,0,0,0.049382716049382706,24.641975308641968,0)" xlink:href="#bv"/><use transform="matrix(0.049382716049382706,0,0,0.049382716049382706,34.518518518518505,0)" xlink:href="#bw"/><use transform="matrix(0.049382716049382706,0,0,0.049382716049382706,38.41975308641974,0)" xlink:href="#bs"/><use transform="matrix(0.049382716049382706,0,0,0.049382716049382706,43.35802469135801,0)" xlink:href="#bz"/><use transform="matrix(0.049382716049382706,0,0,0.049382716049382706,53.234567901234556,0)" xlink:href="#bB"/><use transform="matrix(0.049382716049382706,0,0,0.049382716049382706,59.1111111111111,0)" xlink:href="#bw"/><use transform="matrix(0.049382716049382706,0,0,0.049382716049382706,63.012345679012334,0)" xlink:href="#bv"/><use transform="matrix(0.049382716049382706,0,0,0.049382716049382706,72.88888888888887,0)" xlink:href="#bN"/></g><path fill="#fff" d="M232-93c-1 65-40 97-104 97C67 4 28-28 28-90v-158h33c8 89-33 224 67 224 102 0 64-133 71-224h33v155" id="cy"/><g id="X"><use transform="matrix(0.049382716049382706,0,0,0.049382716049382706,0,0)" xlink:href="#cy"/><use transform="matrix(0.049382716049382706,0,0,0.049382716049382706,12.790123456790122,0)" xlink:href="#bD"/><use transform="matrix(0.049382716049382706,0,0,0.049382716049382706,21.67901234567901,0)" xlink:href="#bu"/><use transform="matrix(0.049382716049382706,0,0,0.049382716049382706,31.55555555555555,0)" xlink:href="#bB"/></g><g id="Y"><use transform="matrix(0.049382716049382706,0,0,0.049382716049382706,0,0)" xlink:href="#cx"/><use transform="matrix(0.049382716049382706,0,0,0.049382716049382706,14.765432098765428,0)" xlink:href="#by"/><use transform="matrix(0.049382716049382706,0,0,0.049382716049382706,24.641975308641968,0)" xlink:href="#bv"/><use transform="matrix(0.049382716049382706,0,0,0.049382716049382706,34.518518518518505,0)" xlink:href="#by"/><use transform="matrix(0.049382716049382706,0,0,0.049382716049382706,44.39506172839505,0)" xlink:href="#bN"/><use transform="matrix(0.049382716049382706,0,0,0.049382716049382706,54.271604938271594,0)" xlink:href="#cw"/><use transform="matrix(0.049382716049382706,0,0,0.049382716049382706,69.03703703703702,0)" xlink:href="#bu"/><use transform="matrix(0.049382716049382706,0,0,0.049382716049382706,78.91358024691357,0)" xlink:href="#bv"/><use transform="matrix(0.049382716049382706,0,0,0.049382716049382706,88.79012345679011,0)" xlink:href="#bs"/></g><path fill="#fff" d="M30-248c87 1 191-15 191 75 0 78-77 80-158 76V0H30v-248zm33 125c57 0 124 11 124-50 0-59-68-47-124-48v98" id="cz"/><g id="Z"><use transform="matrix(0.049382716049382706,0,0,0.049382716049382706,0,0)" xlink:href="#cz"/><use transform="matrix(0.049382716049382706,0,0,0.049382716049382706,11.85185185185185,0)" xlink:href="#bF"/><use transform="matrix(0.049382716049382706,0,0,0.049382716049382706,15.753086419753084,0)" xlink:href="#by"/><use transform="matrix(0.049382716049382706,0,0,0.049382716049382706,25.629629629629626,0)" xlink:href="#bv"/><use transform="matrix(0.049382716049382706,0,0,0.049382716049382706,35.50617283950616,0)" xlink:href="#bs"/><use transform="matrix(0.049382716049382706,0,0,0.049382716049382706,40.444444444444436,0)" xlink:href="#bD"/></g><g id="aa"><use transform="matrix(0.049382716049382706,0,0,0.049382716049382706,0,0)" xlink:href="#by"/><use transform="matrix(0.049382716049382706,0,0,0.049382716049382706,9.87654320987654,0)" xlink:href="#bv"/><use transform="matrix(0.049382716049382706,0,0,0.049382716049382706,19.75308641975308,0)" xlink:href="#bJ"/></g><path fill="#fff" d="M140-251c81 0 123 46 123 126C263-46 219 4 140 4 59 4 17-45 17-125s42-126 123-126zm0 227c63 0 89-41 89-101s-29-99-89-99c-61 0-89 39-89 99S79-25 140-24" id="cA"/><path fill="#fff" d="M115-194c53 0 69 39 70 98 0 66-23 100-70 100C84 3 66-7 56-30L54 0H23l1-261h32v101c10-23 28-34 59-34zm-8 174c40 0 45-34 45-75 0-40-5-75-45-74-42 0-51 32-51 76 0 43 10 73 51 73" id="cB"/><path fill="#fff" d="M24-231v-30h32v30H24zM-9 49c24 4 33-6 33-30v-209h32V24c2 40-23 58-65 49V49" id="cC"/><g id="ab"><use transform="matrix(0.049382716049382706,0,0,0.049382716049382706,0,0)" xlink:href="#cA"/><use transform="matrix(0.049382716049382706,0,0,0.049382716049382706,13.827160493827158,0)" xlink:href="#cB"/><use transform="matrix(0.049382716049382706,0,0,0.049382716049382706,23.7037037037037,0)" xlink:href="#cC"/><use transform="matrix(0.049382716049382706,0,0,0.049382716049382706,27.604938271604933,0)" xlink:href="#bu"/><use transform="matrix(0.049382716049382706,0,0,0.049382716049382706,37.481481481481474,0)" xlink:href="#bx"/><use transform="matrix(0.049382716049382706,0,0,0.049382716049382706,46.37037037037036,0)" xlink:href="#bs"/><use transform="matrix(0.049382716049382706,0,0,0.049382716049382706,51.30864197530863,0)" xlink:href="#bD"/></g><path fill="#fff" d="M30-248c118-7 216 8 213 122C240-48 200 0 122 0H30v-248zM63-27c89 8 146-16 146-99s-60-101-146-95v194" id="cD"/><g id="ac"><use transform="matrix(0.049382716049382706,0,0,0.049382716049382706,0,0)" xlink:href="#cD"/><use transform="matrix(0.049382716049382706,0,0,0.049382716049382706,12.790123456790122,0)" xlink:href="#bQ"/><use transform="matrix(0.049382716049382706,0,0,0.049382716049382706,21.67901234567901,0)" xlink:href="#bv"/><use transform="matrix(0.049382716049382706,0,0,0.049382716049382706,31.55555555555555,0)" xlink:href="#by"/><use transform="matrix(0.049382716049382706,0,0,0.049382716049382706,41.43209876543209,0)" xlink:href="#cw"/><use transform="matrix(0.049382716049382706,0,0,0.049382716049382706,56.19753086419752,0)" xlink:href="#bw"/><use transform="matrix(0.049382716049382706,0,0,0.049382716049382706,60.09876543209875,0)" xlink:href="#bx"/></g><path fill="#fff" d="M145-31C134-9 116 4 85 4 32 4 16-35 15-94c0-59 17-99 70-100 32-1 48 14 60 33 0-11-1-24 2-32h30l-1 268h-32zM93-21c41 0 51-33 51-76s-8-73-50-73c-40 0-46 35-46 75s5 74 45 74" id="cE"/><g id="ad"><use transform="matrix(0.049382716049382706,0,0,0.049382716049382706,0,0)" xlink:href="#bI"/><use transform="matrix(0.049382716049382706,0,0,0.049382716049382706,11.85185185185185,0)" xlink:href="#cE"/><use transform="matrix(0.049382716049382706,0,0,0.049382716049382706,21.728395061728392,0)" xlink:href="#br"/><use transform="matrix(0.049382716049382706,0,0,0.049382716049382706,31.604938271604933,0)" xlink:href="#by"/><use transform="matrix(0.049382716049382706,0,0,0.049382716049382706,41.481481481481474,0)" xlink:href="#bs"/><use transform="matrix(0.049382716049382706,0,0,0.049382716049382706,46.419753086419746,0)" xlink:href="#bw"/><use transform="matrix(0.049382716049382706,0,0,0.049382716049382706,50.32098765432098,0)" xlink:href="#bz"/><use transform="matrix(0.049382716049382706,0,0,0.049382716049382706,60.19753086419752,0)" xlink:href="#bv"/></g><g id="ae"><use transform="matrix(0.049382716049382706,0,0,0.049382716049382706,0,0)" xlink:href="#bM"/><use transform="matrix(0.049382716049382706,0,0,0.049382716049382706,12.790123456790122,0)" xlink:href="#by"/><use transform="matrix(0.049382716049382706,0,0,0.049382716049382706,22.666666666666664,0)" xlink:href="#bv"/><use transform="matrix(0.049382716049382706,0,0,0.049382716049382706,32.5432098765432,0)" xlink:href="#bJ"/><use transform="matrix(0.049382716049382706,0,0,0.049382716049382706,42.419753086419746,0)" xlink:href="#bF"/><use transform="matrix(0.049382716049382706,0,0,0.049382716049382706,46.32098765432098,0)" xlink:href="#bu"/><use transform="matrix(0.049382716049382706,0,0,0.049382716049382706,56.19753086419752,0)" xlink:href="#bB"/></g><path fill="#fff" d="M63-220v92h138v28H63V0H30v-248h175v28H63" id="cF"/><g id="af"><use transform="matrix(0.049382716049382706,0,0,0.049382716049382706,0,0)" xlink:href="#cF"/><use transform="matrix(0.049382716049382706,0,0,0.049382716049382706,10.814814814814813,0)" xlink:href="#by"/><use transform="matrix(0.049382716049382706,0,0,0.049382716049382706,20.691358024691354,0)" xlink:href="#bB"/><use transform="matrix(0.049382716049382706,0,0,0.049382716049382706,26.567901234567895,0)" xlink:href="#cw"/></g><g id="ag"><use transform="matrix(0.049382716049382706,0,0,0.049382716049382706,0,0)" xlink:href="#bI"/><use transform="matrix(0.049382716049382706,0,0,0.049382716049382706,11.85185185185185,0)" xlink:href="#bF"/><use transform="matrix(0.049382716049382706,0,0,0.049382716049382706,15.753086419753084,0)" xlink:href="#bu"/><use transform="matrix(0.049382716049382706,0,0,0.049382716049382706,25.629629629629626,0)" xlink:href="#cw"/><use transform="matrix(0.049382716049382706,0,0,0.049382716049382706,40.395061728395056,0)" xlink:href="#bu"/><use transform="matrix(0.049382716049382706,0,0,0.049382716049382706,50.271604938271594,0)" xlink:href="#bv"/><use transform="matrix(0.049382716049382706,0,0,0.049382716049382706,60.14814814814814,0)" xlink:href="#bs"/><use transform="matrix(0.049382716049382706,0,0,0.049382716049382706,65.0864197530864,0)" xlink:href="#bD"/></g><g id="ah"><use transform="matrix(0.049382716049382706,0,0,0.049382716049382706,0,0)" xlink:href="#bs"/><use transform="matrix(0.049382716049382706,0,0,0.049382716049382706,4.93827160493827,0)" xlink:href="#bQ"/><use transform="matrix(0.049382716049382706,0,0,0.049382716049382706,13.827160493827158,0)" xlink:href="#bK"/><use transform="matrix(0.049382716049382706,0,0,0.049382716049382706,23.7037037037037,0)" xlink:href="#bu"/><use transform="matrix(0.049382716049382706,0,0,0.049382716049382706,33.58024691358024,0)" xlink:href="#bD"/></g><g id="ai"><use transform="matrix(0.049382716049382706,0,0,0.049382716049382706,0,0)" xlink:href="#by"/><use transform="matrix(0.049382716049382706,0,0,0.049382716049382706,9.87654320987654,0)" xlink:href="#bv"/><use transform="matrix(0.049382716049382706,0,0,0.049382716049382706,19.75308641975308,0)" xlink:href="#bJ"/></g><g id="aj"><use transform="matrix(0.049382716049382706,0,0,0.049382716049382706,0,0)" xlink:href="#bG"/><use transform="matrix(0.049382716049382706,0,0,0.049382716049382706,12.790123456790122,0)" xlink:href="#br"/><use transform="matrix(0.049382716049382706,0,0,0.049382716049382706,22.666666666666664,0)" xlink:href="#bF"/><use transform="matrix(0.049382716049382706,0,0,0.049382716049382706,26.567901234567895,0)" xlink:href="#bu"/><use transform="matrix(0.049382716049382706,0,0,0.049382716049382706,36.44444444444444,0)" xlink:href="#bD"/></g><g id="ak"><use transform="matrix(0.049382716049382706,0,0,0.049382716049382706,0,0)" xlink:href="#bE"/><use transform="matrix(0.049382716049382706,0,0,0.049382716049382706,12.790123456790122,0)" xlink:href="#bz"/><use transform="matrix(0.049382716049382706,0,0,0.049382716049382706,22.666666666666664,0)" xlink:href="#bv"/><use transform="matrix(0.049382716049382706,0,0,0.049382716049382706,32.5432098765432,0)" xlink:href="#bs"/><use transform="matrix(0.049382716049382706,0,0,0.049382716049382706,37.481481481481474,0)" xlink:href="#bz"/><use transform="matrix(0.049382716049382706,0,0,0.049382716049382706,47.35802469135801,0)" xlink:href="#bF"/></g><linearGradient gradientUnits="userSpaceOnUse" id="al" x1="1620" y1="-312.73" x2="1620" y2="-201.47"><stop offset="0%" stop-color="#6cc6b9" stop-opacity=".9"/><stop offset="46%" stop-color="#6ac4b7" stop-opacity=".9"/><stop offset="64%" stop-color="#62bdb0" stop-opacity=".9"/><stop offset="77%" stop-color="#56b1a4" stop-opacity=".9"/><stop offset="100%" stop-color="#258277" stop-opacity=".9"/></linearGradient><path fill="#3a414a" d="M30-248c118-7 216 8 213 122C240-48 200 0 122 0H30v-248zM63-27c89 8 146-16 146-99s-60-101-146-95v194" id="cG"/><path fill="#3a414a" d="M190 0L58-211 59 0H30v-248h39L202-35l-2-213h31V0h-41" id="cH"/><g id="am"><use transform="matrix(0.049382716049382706,0,0,0.049382716049382706,0,0)" xlink:href="#bl"/><use transform="matrix(0.049382716049382706,0,0,0.049382716049382706,12.790123456790122,0)" xlink:href="#cG"/><use transform="matrix(0.049382716049382706,0,0,0.049382716049382706,25.580246913580243,0)" xlink:href="#cH"/></g><g id="an"><use transform="matrix(0.049382716049382706,0,0,0.049382716049382706,0,0)" xlink:href="#bA"/><use transform="matrix(0.049382716049382706,0,0,0.049382716049382706,11.85185185185185,0)" xlink:href="#bx"/><use transform="matrix(0.049382716049382706,0,0,0.049382716049382706,20.740740740740737,0)" xlink:href="#bt"/><use transform="matrix(0.049382716049382706,0,0,0.049382716049382706,30.617283950617278,0)" xlink:href="#bu"/><use transform="matrix(0.049382716049382706,0,0,0.049382716049382706,40.49382716049382,0)" xlink:href="#bJ"/><use transform="matrix(0.049382716049382706,0,0,0.049382716049382706,50.37037037037037,0)" xlink:href="#br"/><use transform="matrix(0.049382716049382706,0,0,0.049382716049382706,60.24691358024691,0)" xlink:href="#bF"/><use transform="matrix(0.049382716049382706,0,0,0.049382716049382706,64.14814814814814,0)" xlink:href="#bu"/></g><g id="ao"><use transform="matrix(0.049382716049382706,0,0,0.049382716049382706,0,0)" xlink:href="#cF"/><use transform="matrix(0.049382716049382706,0,0,0.049382716049382706,10.814814814814813,0)" xlink:href="#by"/><use transform="matrix(0.049382716049382706,0,0,0.049382716049382706,20.691358024691354,0)" xlink:href="#bB"/><use transform="matrix(0.049382716049382706,0,0,0.049382716049382706,26.567901234567895,0)" xlink:href="#cw"/></g><path fill="#fff" d="M33 0v-248h34V0H33" id="cI"/><g id="ap"><use transform="matrix(0.049382716049382706,0,0,0.049382716049382706,0,0)" xlink:href="#cI"/><use transform="matrix(0.049382716049382706,0,0,0.049382716049382706,4.93827160493827,0)" xlink:href="#bv"/><use transform="matrix(0.049382716049382706,0,0,0.049382716049382706,14.814814814814811,0)" xlink:href="#bs"/><use transform="matrix(0.049382716049382706,0,0,0.049382716049382706,19.75308641975308,0)" xlink:href="#bu"/><use transform="matrix(0.049382716049382706,0,0,0.049382716049382706,29.629629629629623,0)" xlink:href="#bB"/><use transform="matrix(0.049382716049382706,0,0,0.049382716049382706,35.50617283950616,0)" xlink:href="#by"/><use transform="matrix(0.049382716049382706,0,0,0.049382716049382706,45.38271604938271,0)" xlink:href="#bx"/><use transform="matrix(0.049382716049382706,0,0,0.049382716049382706,54.271604938271594,0)" xlink:href="#bs"/><use transform="matrix(0.049382716049382706,0,0,0.049382716049382706,59.209876543209866,0)" xlink:href="#bw"/><use transform="matrix(0.049382716049382706,0,0,0.049382716049382706,63.1111111111111,0)" xlink:href="#bz"/><use transform="matrix(0.049382716049382706,0,0,0.049382716049382706,72.98765432098764,0)" xlink:href="#bv"/></g><g id="aq"><use transform="matrix(0.049382716049382706,0,0,0.049382716049382706,0,0)" xlink:href="#bE"/><use transform="matrix(0.049382716049382706,0,0,0.049382716049382706,12.790123456790122,0)" xlink:href="#by"/><use transform="matrix(0.049382716049382706,0,0,0.049382716049382706,22.666666666666664,0)" xlink:href="#bF"/><use transform="matrix(0.049382716049382706,0,0,0.049382716049382706,26.567901234567895,0)" xlink:href="#bx"/><use transform="matrix(0.049382716049382706,0,0,0.049382716049382706,35.456790123456784,0)" xlink:href="#br"/><use transform="matrix(0.049382716049382706,0,0,0.049382716049382706,45.33333333333333,0)" xlink:href="#bF"/><use transform="matrix(0.049382716049382706,0,0,0.049382716049382706,49.23456790123456,0)" xlink:href="#by"/><use transform="matrix(0.049382716049382706,0,0,0.049382716049382706,59.1111111111111,0)" xlink:href="#bs"/><use transform="matrix(0.049382716049382706,0,0,0.049382716049382706,64.04938271604937,0)" xlink:href="#bz"/><use transform="matrix(0.049382716049382706,0,0,0.049382716049382706,73.92592592592591,0)" xlink:href="#bB"/></g><path fill="#fff" d="M127-220V0H93v-220H8v-28h204v28h-85" id="cJ"/><g id="ar"><use transform="matrix(0.049382716049382706,0,0,0.049382716049382706,0,0)" xlink:href="#cJ"/><use transform="matrix(0.049382716049382706,0,0,0.049382716049382706,10.172839506172838,0)" xlink:href="#bw"/><use transform="matrix(0.049382716049382706,0,0,0.049382716049382706,14.07407407407407,0)" xlink:href="#cw"/><use transform="matrix(0.049382716049382706,0,0,0.049382716049382706,28.8395061728395,0)" xlink:href="#bu"/><use transform="matrix(0.049382716049382706,0,0,0.049382716049382706,38.71604938271604,0)" xlink:href="#bF"/><use transform="matrix(0.049382716049382706,0,0,0.049382716049382706,42.61728395061727,0)" xlink:href="#bw"/><use transform="matrix(0.049382716049382706,0,0,0.049382716049382706,46.518518518518505,0)" xlink:href="#bv"/><use transform="matrix(0.049382716049382706,0,0,0.049382716049382706,56.39506172839505,0)" xlink:href="#bu"/></g><g id="as"><use transform="matrix(0.049382716049382706,0,0,0.049382716049382706,0,0)" xlink:href="#bA"/><use transform="matrix(0.049382716049382706,0,0,0.049382716049382706,11.85185185185185,0)" xlink:href="#br"/><use transform="matrix(0.049382716049382706,0,0,0.049382716049382706,21.728395061728392,0)" xlink:href="#cw"/><use transform="matrix(0.049382716049382706,0,0,0.049382716049382706,36.49382716049382,0)" xlink:href="#cw"/><use transform="matrix(0.049382716049382706,0,0,0.049382716049382706,51.25925925925925,0)" xlink:href="#by"/><use transform="matrix(0.049382716049382706,0,0,0.049382716049382706,61.135802469135804,0)" xlink:href="#bB"/><use transform="matrix(0.049382716049382706,0,0,0.049382716049382706,67.01234567901234,0)" xlink:href="#bQ"/></g></defs></g></svg>