<svg xmlns="http://www.w3.org/2000/svg" xmlns:xlink="http://www.w3.org/1999/xlink" xmlns:lucid="lucid" width="1790.7" height="1223.21"><g transform="translate(404.68269230769215 95.60625000000005)" lucid:page-tab-id="uv17xZlLbyco"><path d="M-500-500h2000v2000H-500z" fill="#fff"/><path d="M1344.02 284.9c0 44.18-58.2 80-130 80s-130-35.82-130-80c0-44.2 58.2-80 130-80s130 35.8 130 80z" stroke="#000" stroke-opacity="0" fill="#009b84"/><use xlink:href="#a" transform="matrix(1,0,0,1,1123.0160256410259,236.89374999999995) translate(39.14814814814815 36)"/><use xlink:href="#b" transform="matrix(1,0,0,1,1123.0160256410259,236.89374999999995) translate(54.03703703703704 70.66666666666667)"/><path d="M564.02 284.9c0 44.18-58.2 80-130 80s-130-35.82-130-80c0-44.2 58.2-80 130-80s130 35.8 130 80z" stroke="#000" stroke-opacity="0" fill="#009b84"/><use xlink:href="#a" transform="matrix(1,0,0,1,343.01602564102586,236.89374999999995) translate(39.14814814814815 36)"/><use xlink:href="#b" transform="matrix(1,0,0,1,343.01602564102586,236.89374999999995) translate(54.03703703703704 70.66666666666667)"/><path d="M944.02 4.9c0 44.18-53.73 80-120 80-66.28 0-120-35.82-120-80 0-44.2 53.72-80 120-80 66.27 0 120 35.8 120 80z" stroke="#000" stroke-opacity="0" fill="#05443b"/><use xlink:href="#c" transform="matrix(1,0,0,1,740.0160256410259,-43.106250000000045) translate(11.444444444444457 36)"/><use xlink:href="#d" transform="matrix(1,0,0,1,740.0160256410259,-43.106250000000045) translate(44.81481481481481 70.66666666666667)"/><a xlink:href="https://www.postgresql.org/" target="_blank" transform="matrix(1,0,0,1,740.0160256410259,-43.106250000000045)"><path class="lucid-link lucid-hotspot lucid-overlay-hotspot" fill-opacity="0" d="M11.44 14.67h145.1v32H11.45z"/></a><path d="M944.02 564.9c0 44.18-53.73 80-120 80-66.28 0-120-35.82-120-80 0-44.2 53.72-80 120-80 66.27 0 120 35.8 120 80z" stroke="#000" stroke-opacity="0" fill="#05443b"/><use xlink:href="#e" transform="matrix(1,0,0,1,740.0160256410259,516.89375) translate(7.111111111111114 53.333333333333336)"/><use xlink:href="#d" transform="matrix(1,0,0,1,740.0160256410259,516.89375) translate(82.51851851851852 53.333333333333336)"/><path d="M434.02 365.4v187.5a12 12 0 0 0 12 12h241.6" stroke="#333" fill="none"/><path d="M434.02 364.9h.5v.5h-1v-.52z" stroke="#333" stroke-width=".05" fill="#333"/><path d="M702.4 564.9l-14.27 4.63v-9.27z" stroke="#333" fill="#333"/><path d="M1214.02 365.4v187.5a12 12 0 0 1-12 12H960.4" stroke="#333" fill="none"/><path d="M1214.02 364.9h.5v.5h-1v-.52z" stroke="#333" stroke-width=".05" fill="#333"/><path d="M945.63 564.9l14.27-4.64v9.27z" stroke="#333" fill="#333"/><path d="M1214.02 204.4V16.9a12 12 0 0 0-12-12H960.4" stroke="#333" fill="none"/><path d="M1214.52 204.9h-1v-.52h1z" stroke="#333" stroke-width=".05" fill="#333"/><path d="M945.63 4.9L959.9.25v9.27z" stroke="#333" fill="#333"/><path d="M434.02 204.4V16.9a12 12 0 0 1 12-12h241.6" stroke="#333" fill="none"/><path d="M434.52 204.9h-1v-.52h1z" stroke="#333" stroke-width=".05" fill="#333"/><path d="M702.4 4.9l-14.27 4.63V.26z" stroke="#333" fill="#333"/><path d="M324.02 752.9a8 8 0 0 1 8-8h984a8 8 0 0 1 8 8v84a8 8 0 0 1-8 8h-984a8 8 0 0 1-8-8z" stroke="#333" fill="#f2f3f5"/><use xlink:href="#f" transform="matrix(1,0,0,1,344.01602564102586,744.89375) translate(393.93271604938275 55.37777777777778)"/><use xlink:href="#g" transform="matrix(1,0,0,1,344.01602564102586,744.89375) translate(461.154938271605 55.37777777777778)"/><path d="M323.02 794.9h-45.95a12 12 0 0 1-12-12V307.07a12 12 0 0 1 12-12h11.62" stroke="#333" fill="none"/><path d="M323.52 795.4H323v-1h.52z" stroke="#333" stroke-width=".05" fill="#333"/><path d="M303.45 295.08l-14.26 4.64v-9.27z" stroke="#333" fill="#333"/><path d="M1325.02 794.9h47a12 12 0 0 0 12-12v-486a12 12 0 0 0-12-12h-11.62" stroke="#333" fill="none"/><path d="M1325.03 795.4h-.5v-1h.5z" stroke="#333" stroke-width=".05" fill="#333"/><path d="M1345.63 284.9l14.27-4.64v9.27z" stroke="#333" fill="#333"/><path d="M192.88 282.93c0 4.43-3.6 8.03-8.04 8.03-4.43 0-8.03-3.6-8.03-8.03 0-4.44 3.6-8.04 8.04-8.04 4.44 0 8.04 3.6 8.04 8.03zM64.35 282.93c0 4.43-3.6 8.03-8.04 8.03-4.42 0-8.02-3.6-8.02-8.03 0-4.44 3.6-8.04 8.03-8.04 4.45 0 8.05 3.6 8.05 8.03zM.08 282.93c0 4.43-3.6 8.03-8.03 8.03-4.44 0-8.03-3.6-8.03-8.03 0-4.44 3.6-8.04 8.03-8.04 4.44 0 8.03 3.6 8.03 8.03zM128.6 282.93c0 4.43-3.58 8.03-8.02 8.03-4.44 0-8.03-3.6-8.03-8.03 0-4.44 3.6-8.04 8.03-8.04 4.44 0 8.03 3.6 8.03 8.03z" stroke="#333"/><path d="M624.02 1004.4V901.27M624.02 1004.38v.5" stroke="#333" fill="none"/><path d="M624.02 886.5l4.63 14.28h-9.27z" stroke="#333" fill="#333"/><path d="M824.02 1004.4V901.27M824.02 1004.38v.5" stroke="#333" fill="none"/><path d="M824.02 886.5l4.63 14.28h-9.27z" stroke="#333" fill="#333"/><path d="M1024.02 1004.4V901.27M1024.02 1004.38v.5" stroke="#333" fill="none"/><path d="M1024.02 886.5l4.63 14.28h-9.27z" stroke="#333" fill="#333"/><path d="M484.02 1052.9a8 8 0 0 1 8-8h224a8 8 0 0 1 8 8v44a8 8 0 0 1-8 8h-224a8 8 0 0 1-8-8z" stroke="#000" stroke-opacity="0" fill="#fff" fill-opacity="0"/><use xlink:href="#h" transform="matrix(1,0,0,1,504.0160256410261,1044.89375) translate(52.64845679012347 34.48888888888889)"/><path d="M704.02 1052.9a8 8 0 0 1 8-8h224a8 8 0 0 1 8 8v44a8 8 0 0 1-8 8h-224a8 8 0 0 1-8-8z" stroke="#000" stroke-opacity="0" fill="#fff" fill-opacity="0"/><use xlink:href="#h" transform="matrix(1,0,0,1,724.0160256410259,1044.89375) translate(52.64845679012347 34.48888888888889)"/><path d="M904.02 1055.1a8 8 0 0 1 8-8h224a8 8 0 0 1 8 8v44a8 8 0 0 1-8 8h-224a8 8 0 0 1-8-8z" stroke="#000" stroke-opacity="0" fill="#fff" fill-opacity="0"/><g><use xlink:href="#h" transform="matrix(1,0,0,1,924.0160256410259,1047.10625) translate(52.64845679012347 34.48888888888889)"/></g><path d="M-384.18 266.9a8 8 0 0 1 8-8h304a8 8 0 0 1 8 8v32.04a8 8 0 0 1-8 8h-304a8 8 0 0 1-8-8z" stroke="#000" stroke-opacity="0" fill="#fff" fill-opacity="0"/><g><use xlink:href="#i" transform="matrix(1,0,0,1,-364.18269230769215,258.91030982905977) translate(14.057407407407453 30.766666666666666)"/><use xlink:href="#j" transform="matrix(1,0,0,1,-364.18269230769215,258.91030982905977) translate(163.41296296296295 30.766666666666666)"/></g><defs><path fill="#fff" d="M160-131c35 5 61 23 61 61C221 17 115-2 30 0v-248c76 3 177-17 177 60 0 33-19 50-47 57zm-97-11c50-1 110 9 110-42 0-47-63-36-110-37v79zm0 115c55-2 124 14 124-45 0-56-70-42-124-44v89" id="k"/><path fill="#fff" d="M141-36C126-15 110 5 73 4 37 3 15-17 15-53c-1-64 63-63 125-63 3-35-9-54-41-54-24 1-41 7-42 31l-33-3c5-37 33-52 76-52 45 0 72 20 72 64v82c-1 20 7 32 28 27v20c-31 9-61-2-59-35zM48-53c0 20 12 33 32 33 41-3 63-29 60-74-43 2-92-5-92 41" id="l"/><path fill="#fff" d="M96-169c-40 0-48 33-48 73s9 75 48 75c24 0 41-14 43-38l32 2c-6 37-31 61-74 61-59 0-76-41-82-99-10-93 101-131 147-64 4 7 5 14 7 22l-32 3c-4-21-16-35-41-35" id="m"/><path fill="#fff" d="M143 0L79-87 56-68V0H24v-261h32v163l83-92h37l-77 82L181 0h-38" id="n"/><path fill="#fff" d="M100-194c63 0 86 42 84 106H49c0 40 14 67 53 68 26 1 43-12 49-29l28 8c-11 28-37 45-77 45C44 4 14-33 15-96c1-61 26-98 85-98zm52 81c6-60-76-77-97-28-3 7-6 17-6 28h103" id="o"/><path fill="#fff" d="M117-194c89-4 53 116 60 194h-32v-121c0-31-8-49-39-48C34-167 62-67 57 0H25l-1-190h30c1 10-1 24 2 32 11-22 29-35 61-36" id="p"/><path fill="#fff" d="M85-194c31 0 48 13 60 33l-1-100h32l1 261h-30c-2-10 0-23-3-31C134-8 116 4 85 4 32 4 16-35 15-94c0-66 23-100 70-100zm9 24c-40 0-46 34-46 75 0 40 6 74 45 74 42 0 51-32 51-76 0-42-9-74-50-73" id="q"/><g id="a"><use transform="matrix(0.07407407407407408,0,0,0.07407407407407408,0,0)" xlink:href="#k"/><use transform="matrix(0.07407407407407408,0,0,0.07407407407407408,17.77777777777778,0)" xlink:href="#l"/><use transform="matrix(0.07407407407407408,0,0,0.07407407407407408,32.592592592592595,0)" xlink:href="#m"/><use transform="matrix(0.07407407407407408,0,0,0.07407407407407408,45.92592592592593,0)" xlink:href="#n"/><use transform="matrix(0.07407407407407408,0,0,0.07407407407407408,59.25925925925927,0)" xlink:href="#o"/><use transform="matrix(0.07407407407407408,0,0,0.07407407407407408,74.07407407407408,0)" xlink:href="#p"/><use transform="matrix(0.07407407407407408,0,0,0.07407407407407408,88.88888888888889,0)" xlink:href="#q"/></g><path fill="#fff" d="M135-143c-3-34-86-38-87 0 15 53 115 12 119 90S17 21 10-45l28-5c4 36 97 45 98 0-10-56-113-15-118-90-4-57 82-63 122-42 12 7 21 19 24 35" id="r"/><path fill="#fff" d="M114-163C36-179 61-72 57 0H25l-1-190h30c1 12-1 29 2 39 6-27 23-49 58-41v29" id="s"/><path fill="#fff" d="M108 0H70L1-190h34L89-25l56-165h34" id="t"/><g id="b"><use transform="matrix(0.07407407407407408,0,0,0.07407407407407408,0,0)" xlink:href="#r"/><use transform="matrix(0.07407407407407408,0,0,0.07407407407407408,13.333333333333336,0)" xlink:href="#o"/><use transform="matrix(0.07407407407407408,0,0,0.07407407407407408,28.148148148148152,0)" xlink:href="#s"/><use transform="matrix(0.07407407407407408,0,0,0.07407407407407408,36.96296296296297,0)" xlink:href="#t"/><use transform="matrix(0.07407407407407408,0,0,0.07407407407407408,50.296296296296305,0)" xlink:href="#o"/><use transform="matrix(0.07407407407407408,0,0,0.07407407407407408,65.11111111111111,0)" xlink:href="#s"/></g><path fill="#fff" d="M30-248c87 1 191-15 191 75 0 78-77 80-158 76V0H30v-248zm33 125c57 0 124 11 124-50 0-59-68-47-124-48v98" id="u"/><path fill="#fff" d="M100-194c62-1 85 37 85 99 1 63-27 99-86 99S16-35 15-95c0-66 28-99 85-99zM99-20c44 1 53-31 53-75 0-43-8-75-51-75s-53 32-53 75 10 74 51 75" id="v"/><path fill="#fff" d="M59-47c-2 24 18 29 38 22v24C64 9 27 4 27-40v-127H5v-23h24l9-43h21v43h35v23H59v120" id="w"/><path fill="#fff" d="M177-190C167-65 218 103 67 71c-23-6-38-20-44-43l32-5c15 47 100 32 89-28v-30C133-14 115 1 83 1 29 1 15-40 15-95c0-56 16-97 71-98 29-1 48 16 59 35 1-10 0-23 2-32h30zM94-22c36 0 50-32 50-73 0-42-14-75-50-75-39 0-46 34-46 75s6 73 46 73" id="x"/><path fill="#fff" d="M185-189c-5-48-123-54-124 2 14 75 158 14 163 119 3 78-121 87-175 55-17-10-28-26-33-46l33-7c5 56 141 63 141-1 0-78-155-14-162-118-5-82 145-84 179-34 5 7 8 16 11 25" id="y"/><path fill="#fff" d="M140-251c81 0 123 46 123 126C263-53 228-8 163 1c7 30 30 48 69 40v23c-55 16-95-15-103-61C56-3 17-48 17-125c0-80 42-126 123-126zm0 227c63 0 89-41 89-101s-29-99-89-99c-61 0-89 39-89 99S79-25 140-24" id="z"/><path fill="#fff" d="M30 0v-248h33v221h125V0H30" id="A"/><g id="c"><use transform="matrix(0.07407407407407408,0,0,0.07407407407407408,0,0)" xlink:href="#u"/><use transform="matrix(0.07407407407407408,0,0,0.07407407407407408,17.77777777777778,0)" xlink:href="#v"/><use transform="matrix(0.07407407407407408,0,0,0.07407407407407408,32.592592592592595,0)" xlink:href="#r"/><use transform="matrix(0.07407407407407408,0,0,0.07407407407407408,45.92592592592593,0)" xlink:href="#w"/><use transform="matrix(0.07407407407407408,0,0,0.07407407407407408,53.33333333333334,0)" xlink:href="#x"/><use transform="matrix(0.07407407407407408,0,0,0.07407407407407408,68.14814814814815,0)" xlink:href="#s"/><use transform="matrix(0.07407407407407408,0,0,0.07407407407407408,76.96296296296296,0)" xlink:href="#o"/><use transform="matrix(0.07407407407407408,0,0,0.07407407407407408,91.77777777777777,0)" xlink:href="#y"/><use transform="matrix(0.07407407407407408,0,0,0.07407407407407408,109.55555555555554,0)" xlink:href="#z"/><use transform="matrix(0.07407407407407408,0,0,0.07407407407407408,130.29629629629628,0)" xlink:href="#A"/><path fill="#8080ff" d="M-1.33 1.85h147.78V3.8H-1.33z"/></g><g id="d"><use transform="matrix(0.07407407407407408,0,0,0.07407407407407408,0,0)" xlink:href="#y"/><use transform="matrix(0.07407407407407408,0,0,0.07407407407407408,17.77777777777778,0)" xlink:href="#o"/><use transform="matrix(0.07407407407407408,0,0,0.07407407407407408,32.592592592592595,0)" xlink:href="#s"/><use transform="matrix(0.07407407407407408,0,0,0.07407407407407408,41.40740740740741,0)" xlink:href="#t"/><use transform="matrix(0.07407407407407408,0,0,0.07407407407407408,54.74074074074075,0)" xlink:href="#o"/><use transform="matrix(0.07407407407407408,0,0,0.07407407407407408,69.55555555555557,0)" xlink:href="#s"/></g><path fill="#fff" d="M233-177c-1 41-23 64-60 70L243 0h-38l-65-103H63V0H30v-248c88 3 205-21 203 71zM63-129c60-2 137 13 137-47 0-61-80-42-137-45v92" id="B"/><path fill="#fff" d="M24-231v-30h32v30H24zM24 0v-190h32V0H24" id="C"/><g id="e"><use transform="matrix(0.07407407407407408,0,0,0.07407407407407408,0,0)" xlink:href="#B"/><use transform="matrix(0.07407407407407408,0,0,0.07407407407407408,19.185185185185187,0)" xlink:href="#o"/><use transform="matrix(0.07407407407407408,0,0,0.07407407407407408,34,0)" xlink:href="#q"/><use transform="matrix(0.07407407407407408,0,0,0.07407407407407408,48.81481481481481,0)" xlink:href="#C"/><use transform="matrix(0.07407407407407408,0,0,0.07407407407407408,54.66666666666667,0)" xlink:href="#r"/></g><path d="M30 0v-248h33v221h125V0H30" id="D"/><path d="M100-194c62-1 85 37 85 99 1 63-27 99-86 99S16-35 15-95c0-66 28-99 85-99zM99-20c44 1 53-31 53-75 0-43-8-75-51-75s-53 32-53 75 10 74 51 75" id="E"/><path d="M141-36C126-15 110 5 73 4 37 3 15-17 15-53c-1-64 63-63 125-63 3-35-9-54-41-54-24 1-41 7-42 31l-33-3c5-37 33-52 76-52 45 0 72 20 72 64v82c-1 20 7 32 28 27v20c-31 9-61-2-59-35zM48-53c0 20 12 33 32 33 41-3 63-29 60-74-43 2-92-5-92 41" id="F"/><path d="M85-194c31 0 48 13 60 33l-1-100h32l1 261h-30c-2-10 0-23-3-31C134-8 116 4 85 4 32 4 16-35 15-94c0-66 23-100 70-100zm9 24c-40 0-46 34-46 75 0 40 6 74 45 74 42 0 51-32 51-76 0-42-9-74-50-73" id="G"/><g id="f"><use transform="matrix(0.07469135802469135,0,0,0.07469135802469135,0,0)" xlink:href="#D"/><use transform="matrix(0.07469135802469135,0,0,0.07469135802469135,14.938271604938269,0)" xlink:href="#E"/><use transform="matrix(0.07469135802469135,0,0,0.07469135802469135,29.876543209876537,0)" xlink:href="#F"/><use transform="matrix(0.07469135802469135,0,0,0.07469135802469135,44.81481481481481,0)" xlink:href="#G"/></g><path d="M160-131c35 5 61 23 61 61C221 17 115-2 30 0v-248c76 3 177-17 177 60 0 33-19 50-47 57zm-97-11c50-1 110 9 110-42 0-47-63-36-110-37v79zm0 115c55-2 124 14 124-45 0-56-70-42-124-44v89" id="H"/><path d="M24 0v-261h32V0H24" id="I"/><path d="M117-194c89-4 53 116 60 194h-32v-121c0-31-8-49-39-48C34-167 62-67 57 0H25l-1-190h30c1 10-1 24 2 32 11-22 29-35 61-36" id="J"/><path d="M96-169c-40 0-48 33-48 73s9 75 48 75c24 0 41-14 43-38l32 2c-6 37-31 61-74 61-59 0-76-41-82-99-10-93 101-131 147-64 4 7 5 14 7 22l-32 3c-4-21-16-35-41-35" id="K"/><path d="M100-194c63 0 86 42 84 106H49c0 40 14 67 53 68 26 1 43-12 49-29l28 8c-11 28-37 45-77 45C44 4 14-33 15-96c1-61 26-98 85-98zm52 81c6-60-76-77-97-28-3 7-6 17-6 28h103" id="L"/><path d="M114-163C36-179 61-72 57 0H25l-1-190h30c1 12-1 29 2 39 6-27 23-49 58-41v29" id="M"/><g id="g"><use transform="matrix(0.07469135802469135,0,0,0.07469135802469135,0,0)" xlink:href="#H"/><use transform="matrix(0.07469135802469135,0,0,0.07469135802469135,17.925925925925924,0)" xlink:href="#F"/><use transform="matrix(0.07469135802469135,0,0,0.07469135802469135,32.86419753086419,0)" xlink:href="#I"/><use transform="matrix(0.07469135802469135,0,0,0.07469135802469135,38.764814814814805,0)" xlink:href="#F"/><use transform="matrix(0.07469135802469135,0,0,0.07469135802469135,53.70308641975308,0)" xlink:href="#J"/><use transform="matrix(0.07469135802469135,0,0,0.07469135802469135,68.64135802469134,0)" xlink:href="#K"/><use transform="matrix(0.07469135802469135,0,0,0.07469135802469135,82.08580246913579,0)" xlink:href="#L"/><use transform="matrix(0.07469135802469135,0,0,0.07469135802469135,97.02407407407406,0)" xlink:href="#M"/></g><path d="M233-177c-1 41-23 64-60 70L243 0h-38l-65-103H63V0H30v-248c88 3 205-21 203 71zM63-129c60-2 137 13 137-47 0-61-80-42-137-45v92" id="N"/><path d="M145-31C134-9 116 4 85 4 32 4 16-35 15-94c0-59 17-99 70-100 32-1 48 14 60 33 0-11-1-24 2-32h30l-1 268h-32zM93-21c41 0 51-33 51-76s-8-73-50-73c-40 0-46 35-46 75s5 74 45 74" id="O"/><path d="M84 4C-5 8 30-112 23-190h32v120c0 31 7 50 39 49 72-2 45-101 50-169h31l1 190h-30c-1-10 1-25-2-33-11 22-28 36-60 37" id="P"/><path d="M135-143c-3-34-86-38-87 0 15 53 115 12 119 90S17 21 10-45l28-5c4 36 97 45 98 0-10-56-113-15-118-90-4-57 82-63 122-42 12 7 21 19 24 35" id="Q"/><path d="M59-47c-2 24 18 29 38 22v24C64 9 27 4 27-40v-127H5v-23h24l9-43h21v43h35v23H59v120" id="R"/><g id="h"><use transform="matrix(0.06234567901234567,0,0,0.06234567901234567,0,0)" xlink:href="#N"/><use transform="matrix(0.06234567901234567,0,0,0.06234567901234567,16.147530864197527,0)" xlink:href="#L"/><use transform="matrix(0.06234567901234567,0,0,0.06234567901234567,28.61666666666666,0)" xlink:href="#O"/><use transform="matrix(0.06234567901234567,0,0,0.06234567901234567,41.08580246913579,0)" xlink:href="#P"/><use transform="matrix(0.06234567901234567,0,0,0.06234567901234567,53.554938271604925,0)" xlink:href="#L"/><use transform="matrix(0.06234567901234567,0,0,0.06234567901234567,66.02407407407406,0)" xlink:href="#Q"/><use transform="matrix(0.06234567901234567,0,0,0.06234567901234567,77.24629629629628,0)" xlink:href="#R"/><use transform="matrix(0.06234567901234567,0,0,0.06234567901234567,83.48086419753085,0)" xlink:href="#Q"/></g><path d="M197 0v-115H63V0H30v-248h33v105h134v-105h34V0h-34" id="S"/><path d="M24-231v-30h32v30H24zM24 0v-190h32V0H24" id="T"/><path d="M9 0v-24l116-142H16v-24h144v24L44-24h123V0H9" id="U"/><g id="i"><use transform="matrix(0.08703703703703701,0,0,0.08703703703703701,0,0)" xlink:href="#S"/><use transform="matrix(0.08703703703703701,0,0,0.08703703703703701,22.542592592592584,0)" xlink:href="#E"/><use transform="matrix(0.08703703703703701,0,0,0.08703703703703701,39.94999999999999,0)" xlink:href="#M"/><use transform="matrix(0.08703703703703701,0,0,0.08703703703703701,50.30740740740739,0)" xlink:href="#T"/><use transform="matrix(0.08703703703703701,0,0,0.08703703703703701,57.18333333333332,0)" xlink:href="#U"/><use transform="matrix(0.08703703703703701,0,0,0.08703703703703701,72.84999999999998,0)" xlink:href="#E"/><use transform="matrix(0.08703703703703701,0,0,0.08703703703703701,90.25740740740738,0)" xlink:href="#J"/><use transform="matrix(0.08703703703703701,0,0,0.08703703703703701,107.66481481481478,0)" xlink:href="#R"/><use transform="matrix(0.08703703703703701,0,0,0.08703703703703701,116.36851851851848,0)" xlink:href="#F"/><use transform="matrix(0.08703703703703701,0,0,0.08703703703703701,133.7759259259259,0)" xlink:href="#I"/></g><path d="M185-189c-5-48-123-54-124 2 14 75 158 14 163 119 3 78-121 87-175 55-17-10-28-26-33-46l33-7c5 56 141 63 141-1 0-78-155-14-162-118-5-82 145-84 179-34 5 7 8 16 11 25" id="V"/><path d="M177-190C167-65 218 103 67 71c-23-6-38-20-44-43l32-5c15 47 100 32 89-28v-30C133-14 115 1 83 1 29 1 15-40 15-95c0-56 16-97 71-98 29-1 48 16 59 35 1-10 0-23 2-32h30zM94-22c36 0 50-32 50-73 0-42-14-75-50-75-39 0-46 34-46 75s6 73 46 73" id="W"/><g id="j"><use transform="matrix(0.08703703703703701,0,0,0.08703703703703701,0,0)" xlink:href="#V"/><use transform="matrix(0.08703703703703701,0,0,0.08703703703703701,20.888888888888882,0)" xlink:href="#K"/><use transform="matrix(0.08703703703703701,0,0,0.08703703703703701,36.55555555555554,0)" xlink:href="#F"/><use transform="matrix(0.08703703703703701,0,0,0.08703703703703701,53.96296296296295,0)" xlink:href="#I"/><use transform="matrix(0.08703703703703701,0,0,0.08703703703703701,60.83888888888887,0)" xlink:href="#T"/><use transform="matrix(0.08703703703703701,0,0,0.08703703703703701,67.7148148148148,0)" xlink:href="#J"/><use transform="matrix(0.08703703703703701,0,0,0.08703703703703701,85.1222222222222,0)" xlink:href="#W"/></g></defs></g></svg>